<svg xmlns="http://www.w3.org/2000/svg" xmlns:xlink="http://www.w3.org/1999/xlink" width="500" zoomAndPan="magnify" viewBox="0 0 375 374.999991" height="500" preserveAspectRatio="xMidYMid meet" version="1.0"><defs><g/><clipPath id="3c3dfbc954"><path d="M 11.050781 49.371094 L 364 49.371094 L 364 170 L 11.050781 170 Z M 11.050781 49.371094 " clip-rule="nonzero"/></clipPath><clipPath id="8417f369d8"><rect x="0" width="90" y="0" height="13"/></clipPath></defs><rect x="-37.5" width="450" fill="#ffffff" y="-37.499999" height="449.999989" fill-opacity="1"/><rect x="-37.5" width="450" fill="#ffffff" y="-37.499999" height="449.999989" fill-opacity="1"/><g fill="#fafaf9" fill-opacity="1"><g transform="translate(118.562769, 229.468111)"><g><path d="M -7.3125 10.421875 C -9.207031 10.421875 -10.15625 9.640625 -10.15625 8.078125 C -10.15625 6.878906 -9.691406 5.707031 -8.765625 4.5625 C -7.835938 3.414062 -6.640625 2.390625 -5.171875 1.484375 C -3.703125 0.578125 -2.140625 -0.140625 -0.484375 -0.671875 C 1.171875 -1.210938 2.734375 -1.484375 4.203125 -1.484375 C 5.835938 -1.484375 7.304688 -1.179688 8.609375 -0.578125 C 9.210938 -1.222656 9.8125 -1.890625 10.40625 -2.578125 C 11.007812 -3.273438 11.59375 -3.988281 12.15625 -4.71875 C 13.019531 -5.757812 13.9375 -6.945312 14.90625 -8.28125 C 15.875 -9.613281 16.789062 -10.976562 17.65625 -12.375 C 18.519531 -13.78125 19.222656 -15.109375 19.765625 -16.359375 C 20.304688 -17.609375 20.578125 -18.625 20.578125 -19.40625 C 20.578125 -20.53125 19.820312 -21.09375 18.3125 -21.09375 C 17.1875 -21.09375 15.847656 -20.753906 14.296875 -20.078125 C 12.742188 -19.410156 11.320312 -18.582031 10.03125 -17.59375 C 8.34375 -16.257812 6.882812 -14.78125 5.65625 -13.15625 C 4.425781 -11.539062 3.707031 -10.175781 3.5 -9.0625 C 3.5 -8.84375 3.367188 -8.734375 3.109375 -8.734375 C 2.890625 -8.734375 2.78125 -8.863281 2.78125 -9.125 L 2.78125 -9.1875 C 3 -10.4375 3.742188 -11.910156 5.015625 -13.609375 C 6.285156 -15.316406 7.804688 -16.835938 9.578125 -18.171875 C 10.910156 -19.253906 12.394531 -20.128906 14.03125 -20.796875 C 15.675781 -21.460938 17.101562 -21.796875 18.3125 -21.796875 C 20.332031 -21.796875 21.34375 -21 21.34375 -19.40625 C 21.34375 -18.539062 21.0625 -17.460938 20.5 -16.171875 C 19.945312 -14.878906 19.226562 -13.507812 18.34375 -12.0625 C 17.457031 -10.613281 16.515625 -9.195312 15.515625 -7.8125 C 14.523438 -6.4375 13.601562 -5.234375 12.75 -4.203125 C 12.1875 -3.515625 11.613281 -2.835938 11.03125 -2.171875 C 10.445312 -1.503906 9.875 -0.867188 9.3125 -0.265625 C 10.820312 0.554688 11.859375 1.785156 12.421875 3.421875 L 12.421875 3.5625 C 12.421875 3.820312 12.3125 3.953125 12.09375 3.953125 C 11.925781 3.953125 11.796875 3.863281 11.703125 3.6875 C 11.191406 2.175781 10.222656 1.054688 8.796875 0.328125 C 5.691406 3.597656 2.800781 6.097656 0.125 7.828125 C -2.539062 9.554688 -5.019531 10.421875 -7.3125 10.421875 Z M -7.3125 9.703125 C -5.15625 9.703125 -2.800781 8.859375 -0.25 7.171875 C 2.289062 5.492188 5.066406 3.082031 8.078125 -0.0625 C 7.046875 -0.5 5.753906 -0.71875 4.203125 -0.71875 C 2.648438 -0.71875 1.085938 -0.445312 -0.484375 0.09375 C -2.054688 0.632812 -3.519531 1.335938 -4.875 2.203125 C -6.238281 3.066406 -7.328125 4.015625 -8.140625 5.046875 C -8.960938 6.078125 -9.375 7.085938 -9.375 8.078125 C -9.375 9.160156 -8.6875 9.703125 -7.3125 9.703125 Z M -7.3125 9.703125 "/></g></g></g><g fill="#fafaf9" fill-opacity="1"><g transform="translate(137.451528, 229.468111)"><g><path d="M 4.984375 1.296875 C 4.203125 1.296875 3.640625 0.972656 3.296875 0.328125 C 2.953125 -0.316406 2.867188 -1.160156 3.046875 -2.203125 C 3.296875 -3.671875 3.914062 -5.234375 4.90625 -6.890625 C 5.90625 -8.546875 7.101562 -10.148438 8.5 -11.703125 C 9.90625 -13.253906 11.375 -14.65625 12.90625 -15.90625 C 14.4375 -17.15625 15.878906 -18.132812 17.234375 -18.84375 C 18.597656 -19.5625 19.6875 -19.878906 20.5 -19.796875 C 20.757812 -19.710938 20.890625 -19.582031 20.890625 -19.40625 C 20.890625 -19.144531 20.757812 -19.015625 20.5 -19.015625 L 20.4375 -19.015625 C 19.664062 -19.097656 18.640625 -18.804688 17.359375 -18.140625 C 16.085938 -17.472656 14.71875 -16.535156 13.25 -15.328125 C 11.789062 -14.117188 10.390625 -12.757812 9.046875 -11.25 C 7.710938 -9.738281 6.5625 -8.1875 5.59375 -6.59375 C 4.625 -5 4.007812 -3.488281 3.75 -2.0625 C 3.488281 -0.34375 3.898438 0.515625 4.984375 0.515625 C 6.316406 0.515625 7.78125 0.03125 9.375 -0.9375 C 10.96875 -1.90625 12.550781 -3.164062 14.125 -4.71875 C 15.707031 -6.269531 17.164062 -7.90625 18.5 -9.625 C 19.832031 -11.351562 20.941406 -13.003906 21.828125 -14.578125 C 22.710938 -16.160156 23.242188 -17.425781 23.421875 -18.375 C 23.679688 -19.882812 23.054688 -20.640625 21.546875 -20.640625 C 21.328125 -20.640625 21.21875 -20.765625 21.21875 -21.015625 C 21.21875 -21.273438 21.328125 -21.40625 21.546875 -21.40625 C 22.535156 -21.40625 23.265625 -21.125 23.734375 -20.5625 C 24.210938 -20.007812 24.34375 -19.234375 24.125 -18.234375 C 23.957031 -17.242188 23.421875 -15.941406 22.515625 -14.328125 C 21.609375 -12.710938 20.460938 -11.007812 19.078125 -9.21875 C 17.703125 -7.425781 16.191406 -5.734375 14.546875 -4.140625 C 12.910156 -2.546875 11.257812 -1.238281 9.59375 -0.21875 C 7.9375 0.789062 6.398438 1.296875 4.984375 1.296875 Z M 4.984375 1.296875 "/></g></g></g><g fill="#fafaf9" fill-opacity="1"><g transform="translate(153.558731, 229.468111)"><g/></g></g><g fill="#fafaf9" fill-opacity="1"><g transform="translate(167.854678, 229.468111)"><g><path d="M 4.921875 4.40625 C 4.097656 4.40625 3.394531 4.285156 2.8125 4.046875 C 2.226562 3.804688 1.9375 3.472656 1.9375 3.046875 C 1.9375 2.648438 2.195312 2.269531 2.71875 1.90625 C 3.238281 1.539062 4.195312 1.078125 5.59375 0.515625 C 7 -0.046875 9.082031 -0.78125 11.84375 -1.6875 C 11.320312 -2.757812 9.984375 -3.921875 7.828125 -5.171875 C 6.398438 -5.953125 5.222656 -6.796875 4.296875 -7.703125 C 3.367188 -8.609375 3.035156 -9.789062 3.296875 -11.25 C 3.554688 -12.550781 4.300781 -13.800781 5.53125 -15 C 6.757812 -16.207031 8.242188 -17.285156 9.984375 -18.234375 C 11.734375 -19.191406 13.546875 -19.945312 15.421875 -20.5 C 17.296875 -21.0625 18.988281 -21.34375 20.5 -21.34375 C 22.144531 -21.34375 23.351562 -21.007812 24.125 -20.34375 C 24.90625 -19.675781 25.1875 -18.71875 24.96875 -17.46875 C 24.582031 -15.269531 23.09375 -13.285156 20.5 -11.515625 C 20.457031 -11.472656 20.375 -11.453125 20.25 -11.453125 C 19.988281 -11.453125 19.859375 -11.554688 19.859375 -11.765625 C 19.859375 -11.859375 19.921875 -11.96875 20.046875 -12.09375 C 22.554688 -13.820312 23.957031 -15.65625 24.25 -17.59375 C 24.601562 -19.625 23.351562 -20.640625 20.5 -20.640625 C 19.039062 -20.640625 17.40625 -20.367188 15.59375 -19.828125 C 13.78125 -19.285156 12.039062 -18.5625 10.375 -17.65625 C 8.71875 -16.75 7.304688 -15.734375 6.140625 -14.609375 C 4.984375 -13.492188 4.296875 -12.332031 4.078125 -11.125 C 3.859375 -9.914062 4.132812 -8.921875 4.90625 -8.140625 C 5.6875 -7.367188 6.769531 -6.597656 8.15625 -5.828125 C 9.3125 -5.128906 10.253906 -4.46875 10.984375 -3.84375 C 11.722656 -3.21875 12.242188 -2.5625 12.546875 -1.875 L 14.109375 -2.390625 L 25.15625 -6.140625 C 25.15625 -6.140625 25.164062 -6.140625 25.1875 -6.140625 C 25.21875 -6.140625 25.253906 -6.140625 25.296875 -6.140625 C 25.503906 -6.140625 25.609375 -6.007812 25.609375 -5.75 C 25.609375 -5.582031 25.523438 -5.476562 25.359375 -5.4375 C 23.242188 -4.695312 21.257812 -4.015625 19.40625 -3.390625 C 17.550781 -2.765625 15.867188 -2.195312 14.359375 -1.6875 L 12.75 -1.171875 C 13.09375 -0.347656 12.882812 0.492188 12.125 1.359375 C 11.375 2.222656 10.335938 2.945312 9.015625 3.53125 C 7.703125 4.113281 6.335938 4.40625 4.921875 4.40625 Z M 4.921875 3.6875 C 6.035156 3.6875 7.15625 3.46875 8.28125 3.03125 C 9.40625 2.601562 10.332031 2.066406 11.0625 1.421875 C 11.789062 0.773438 12.15625 0.128906 12.15625 -0.515625 C 12.15625 -0.691406 12.132812 -0.84375 12.09375 -0.96875 C 9.550781 -0.101562 7.597656 0.582031 6.234375 1.09375 C 4.878906 1.613281 3.953125 2.015625 3.453125 2.296875 C 2.960938 2.578125 2.71875 2.828125 2.71875 3.046875 C 2.71875 3.210938 2.921875 3.359375 3.328125 3.484375 C 3.742188 3.617188 4.273438 3.6875 4.921875 3.6875 Z M 4.921875 3.6875 "/></g></g></g><g fill="#fafaf9" fill-opacity="1"><g transform="translate(191.206884, 229.468111)"><g><path d="M -1.8125 0.390625 C -2.195312 0.304688 -2.390625 0.0859375 -2.390625 -0.265625 C -2.390625 -0.566406 -2.097656 -1.15625 -1.515625 -2.03125 C -0.929688 -2.914062 -0.210938 -3.863281 0.640625 -4.875 C 1.503906 -5.894531 2.304688 -6.75 3.046875 -7.4375 C 3.085938 -7.476562 3.171875 -7.5 3.296875 -7.5 C 3.554688 -7.5 3.6875 -7.367188 3.6875 -7.109375 C 3.6875 -7.023438 3.644531 -6.941406 3.5625 -6.859375 C 2.519531 -5.910156 1.566406 -4.894531 0.703125 -3.8125 C -0.148438 -2.738281 -0.773438 -1.859375 -1.171875 -1.171875 C -1.253906 -1.035156 -1.25 -0.945312 -1.15625 -0.90625 C -1.070312 -0.863281 -0.988281 -0.863281 -0.90625 -0.90625 C -0.5625 -1.125 -0.15625 -1.425781 0.3125 -1.8125 C 0.789062 -2.195312 1.375 -2.671875 2.0625 -3.234375 C 4.476562 -5.210938 6.28125 -6.601562 7.46875 -7.40625 C 8.65625 -8.207031 9.550781 -8.609375 10.15625 -8.609375 C 11.0625 -8.609375 11.515625 -8.285156 11.515625 -7.640625 C 11.515625 -7.078125 10.820312 -5.738281 9.4375 -3.625 L 8.46875 -2.0625 C 8.382812 -1.9375 8.375 -1.84375 8.4375 -1.78125 C 8.5 -1.71875 8.597656 -1.707031 8.734375 -1.75 L 10.15625 -2.65625 C 10.882812 -3.082031 11.648438 -3.5 12.453125 -3.90625 C 13.253906 -4.320312 13.867188 -4.53125 14.296875 -4.53125 C 14.859375 -4.53125 15.140625 -4.226562 15.140625 -3.625 C 15.140625 -3.445312 15.128906 -3.269531 15.109375 -3.09375 C 15.085938 -2.925781 15.078125 -2.757812 15.078125 -2.59375 C 15.023438 -2.414062 14.988281 -2.21875 14.96875 -2 C 14.945312 -1.789062 14.9375 -1.578125 14.9375 -1.359375 C 14.9375 -1.015625 15.238281 -0.84375 15.84375 -0.84375 C 16.664062 -0.84375 17.785156 -1.207031 19.203125 -1.9375 C 20.628906 -2.675781 22.570312 -3.882812 25.03125 -5.5625 C 25.070312 -5.601562 25.140625 -5.625 25.234375 -5.625 C 25.484375 -5.625 25.609375 -5.515625 25.609375 -5.296875 C 25.609375 -5.171875 25.546875 -5.066406 25.421875 -4.984375 C 22.921875 -3.253906 20.925781 -2.007812 19.4375 -1.25 C 17.945312 -0.5 16.75 -0.125 15.84375 -0.125 C 14.769531 -0.125 14.234375 -0.535156 14.234375 -1.359375 C 14.234375 -1.578125 14.234375 -1.800781 14.234375 -2.03125 C 14.234375 -2.269531 14.253906 -2.476562 14.296875 -2.65625 C 14.335938 -2.863281 14.367188 -3.039062 14.390625 -3.1875 C 14.410156 -3.34375 14.421875 -3.488281 14.421875 -3.625 C 14.421875 -3.75 14.335938 -3.8125 14.171875 -3.8125 C 13.953125 -3.8125 13.570312 -3.679688 13.03125 -3.421875 C 12.488281 -3.171875 11.660156 -2.695312 10.546875 -2 C 9.679688 -1.445312 9.050781 -1.070312 8.65625 -0.875 C 8.269531 -0.675781 7.972656 -0.578125 7.765625 -0.578125 C 7.460938 -0.578125 7.3125 -0.773438 7.3125 -1.171875 C 7.3125 -1.378906 7.414062 -1.6875 7.625 -2.09375 C 7.84375 -2.507812 8.253906 -3.148438 8.859375 -4.015625 C 9.546875 -5.085938 10.03125 -5.894531 10.3125 -6.4375 C 10.59375 -6.976562 10.734375 -7.351562 10.734375 -7.5625 C 10.734375 -7.78125 10.601562 -7.890625 10.34375 -7.890625 C 9.832031 -7.890625 9.144531 -7.617188 8.28125 -7.078125 C 7.414062 -6.546875 6.488281 -5.878906 5.5 -5.078125 C 4.507812 -4.273438 3.515625 -3.488281 2.515625 -2.71875 C 1.054688 -1.507812 0.0351562 -0.6875 -0.546875 -0.25 C -1.128906 0.175781 -1.550781 0.390625 -1.8125 0.390625 Z M -1.8125 0.390625 "/></g></g></g><g fill="#fafaf9" fill-opacity="1"><g transform="translate(215.011898, 229.468111)"><g><path d="M 4.65625 -8.34375 C 4.394531 -8.34375 4.265625 -8.453125 4.265625 -8.671875 C 4.265625 -8.796875 4.285156 -8.878906 4.328125 -8.921875 L 4.59375 -9.1875 C 4.675781 -9.3125 4.78125 -9.457031 4.90625 -9.625 C 5.039062 -9.800781 5.128906 -9.9375 5.171875 -10.03125 C 5.253906 -10.113281 5.363281 -10.15625 5.5 -10.15625 C 5.71875 -10.15625 5.828125 -10.023438 5.828125 -9.765625 C 5.828125 -9.640625 5.800781 -9.554688 5.75 -9.515625 C 5.582031 -9.335938 5.390625 -9.078125 5.171875 -8.734375 L 4.921875 -8.46875 C 4.867188 -8.382812 4.78125 -8.34375 4.65625 -8.34375 Z M 0.515625 0.390625 C -0.648438 0.390625 -1.234375 -0.171875 -1.234375 -1.296875 C -1.234375 -1.898438 -0.875 -2.726562 -0.15625 -3.78125 C 0.550781 -4.84375 1.507812 -5.976562 2.71875 -7.1875 C 2.757812 -7.226562 2.84375 -7.25 2.96875 -7.25 C 3.226562 -7.25 3.359375 -7.140625 3.359375 -6.921875 C 3.359375 -6.835938 3.316406 -6.75 3.234375 -6.65625 C 2.148438 -5.539062 1.253906 -4.484375 0.546875 -3.484375 C -0.160156 -2.492188 -0.515625 -1.765625 -0.515625 -1.296875 C -0.515625 -0.691406 -0.171875 -0.390625 0.515625 -0.390625 C 1.035156 -0.390625 1.78125 -0.550781 2.75 -0.875 C 3.71875 -1.195312 4.804688 -1.625 6.015625 -2.15625 C 7.222656 -2.695312 8.40625 -3.269531 9.5625 -3.875 C 10.726562 -4.476562 11.722656 -5.0625 12.546875 -5.625 L 12.75 -5.625 C 13 -5.625 13.125 -5.515625 13.125 -5.296875 C 13.125 -5.171875 13.082031 -5.066406 13 -4.984375 C 12.132812 -4.421875 11.109375 -3.828125 9.921875 -3.203125 C 8.742188 -2.578125 7.53125 -1.992188 6.28125 -1.453125 C 5.03125 -0.910156 3.894531 -0.46875 2.875 -0.125 C 1.863281 0.21875 1.078125 0.390625 0.515625 0.390625 Z M 0.515625 0.390625 "/></g></g></g><g fill="#fafaf9" fill-opacity="1"><g transform="translate(226.332221, 229.468111)"><g><path d="M -13.65625 16.4375 C -14.039062 16.4375 -14.164062 16.21875 -14.03125 15.78125 L -13.96875 15.71875 C -13.925781 15.632812 -13.894531 15.554688 -13.875 15.484375 C -13.851562 15.421875 -13.820312 15.367188 -13.78125 15.328125 C -10.675781 10.453125 -7.210938 5.515625 -3.390625 0.515625 C 0.421875 -4.484375 4.351562 -9.378906 8.40625 -14.171875 C 5.644531 -14.035156 2.9375 -13.859375 0.28125 -13.640625 C -2.363281 -13.429688 -4.894531 -13.15625 -7.3125 -12.8125 L -7.375 -12.8125 C -7.632812 -12.8125 -7.765625 -12.941406 -7.765625 -13.203125 C -7.765625 -13.367188 -7.65625 -13.492188 -7.4375 -13.578125 C -4.894531 -13.929688 -2.234375 -14.210938 0.546875 -14.421875 C 3.328125 -14.640625 6.164062 -14.789062 9.0625 -14.875 C 10.863281 -17.03125 12.679688 -19.128906 14.515625 -21.171875 C 16.347656 -23.222656 18.171875 -25.242188 19.984375 -27.234375 C 20.078125 -27.316406 20.164062 -27.359375 20.25 -27.359375 C 20.507812 -27.359375 20.640625 -27.226562 20.640625 -26.96875 C 20.640625 -26.84375 20.617188 -26.757812 20.578125 -26.71875 C 18.847656 -24.863281 17.109375 -22.941406 15.359375 -20.953125 C 13.617188 -18.972656 11.863281 -16.96875 10.09375 -14.9375 C 15.519531 -15.15625 20.929688 -15.15625 26.328125 -14.9375 C 26.546875 -14.9375 26.65625 -14.804688 26.65625 -14.546875 C 26.65625 -14.335938 26.523438 -14.234375 26.265625 -14.234375 C 23.503906 -14.316406 20.695312 -14.359375 17.84375 -14.359375 C 15 -14.359375 12.175781 -14.296875 9.375 -14.171875 C 5.363281 -9.460938 1.460938 -4.640625 -2.328125 0.296875 C -6.117188 5.234375 -9.546875 10.113281 -12.609375 14.9375 C -12.441406 15.03125 -12.441406 15.179688 -12.609375 15.390625 C -12.785156 15.648438 -12.957031 15.890625 -13.125 16.109375 C -13.300781 16.328125 -13.476562 16.4375 -13.65625 16.4375 Z M -13.65625 16.4375 "/></g></g></g><g fill="#fafaf9" fill-opacity="1"><g transform="translate(235.970664, 229.468111)"><g><path d="M -3.953125 3.875 C -4.296875 3.875 -4.46875 3.703125 -4.46875 3.359375 C -4.46875 2.796875 -3.945312 1.71875 -2.90625 0.125 C -1.875 -1.46875 -0.5 -3.363281 1.21875 -5.5625 C 2.945312 -7.757812 4.867188 -10.097656 6.984375 -12.578125 C 9.097656 -15.054688 11.242188 -17.492188 13.421875 -19.890625 C 15.597656 -22.285156 17.65625 -24.460938 19.59375 -26.421875 C 21.539062 -28.390625 23.210938 -29.953125 24.609375 -31.109375 C 26.015625 -32.273438 26.972656 -32.859375 27.484375 -32.859375 C 28.222656 -32.859375 28.59375 -32.492188 28.59375 -31.765625 C 28.59375 -31.117188 28.109375 -30.0625 27.140625 -28.59375 C 26.171875 -27.125 24.832031 -25.421875 23.125 -23.484375 C 21.425781 -21.546875 19.441406 -19.484375 17.171875 -17.296875 C 14.910156 -15.117188 12.460938 -12.972656 9.828125 -10.859375 C 7.203125 -8.753906 4.507812 -6.816406 1.75 -5.046875 C 0.707031 -3.710938 -0.207031 -2.492188 -1 -1.390625 C -1.800781 -0.285156 -2.4375 0.648438 -2.90625 1.421875 C -3.164062 1.847656 -3.226562 2.0625 -3.09375 2.0625 C -2.96875 2.0625 -2.753906 1.890625 -2.453125 1.546875 C -2.023438 1.117188 -1.550781 0.65625 -1.03125 0.15625 C -0.519531 -0.332031 0.015625 -0.835938 0.578125 -1.359375 C 4.378906 -4.941406 6.925781 -6.734375 8.21875 -6.734375 C 8.820312 -6.734375 9.125 -6.40625 9.125 -5.75 C 9.125 -5.445312 9.054688 -5.101562 8.921875 -4.71875 C 8.796875 -4.332031 8.644531 -3.945312 8.46875 -3.5625 C 8.34375 -3.164062 8.210938 -2.796875 8.078125 -2.453125 C 7.953125 -2.109375 7.890625 -1.804688 7.890625 -1.546875 C 7.890625 -0.816406 8.363281 -0.453125 9.3125 -0.453125 C 10.257812 -0.453125 11.5 -0.734375 13.03125 -1.296875 C 14.5625 -1.859375 16.113281 -2.535156 17.6875 -3.328125 C 19.257812 -4.128906 20.609375 -4.894531 21.734375 -5.625 L 21.921875 -5.625 C 22.179688 -5.625 22.3125 -5.515625 22.3125 -5.296875 C 22.3125 -5.171875 22.25 -5.066406 22.125 -4.984375 C 21 -4.242188 19.628906 -3.460938 18.015625 -2.640625 C 16.398438 -1.828125 14.804688 -1.128906 13.234375 -0.546875 C 11.660156 0.0351562 10.351562 0.328125 9.3125 0.328125 C 7.894531 0.328125 7.1875 -0.296875 7.1875 -1.546875 C 7.1875 -1.890625 7.25 -2.265625 7.375 -2.671875 C 7.5 -3.085938 7.648438 -3.488281 7.828125 -3.875 C 7.953125 -4.226562 8.078125 -4.578125 8.203125 -4.921875 C 8.335938 -5.265625 8.40625 -5.539062 8.40625 -5.75 C 8.40625 -5.925781 8.34375 -6.015625 8.21875 -6.015625 C 7.132812 -6.015625 4.757812 -4.289062 1.09375 -0.84375 C 0.539062 -0.28125 0.00390625 0.242188 -0.515625 0.734375 C -1.035156 1.234375 -1.507812 1.675781 -1.9375 2.0625 C -2.414062 2.582031 -2.835938 3.015625 -3.203125 3.359375 C -3.566406 3.703125 -3.816406 3.875 -3.953125 3.875 Z M 3.234375 -6.859375 C 5.816406 -8.628906 8.328125 -10.523438 10.765625 -12.546875 C 13.203125 -14.578125 15.457031 -16.59375 17.53125 -18.59375 C 19.601562 -20.601562 21.414062 -22.5 22.96875 -24.28125 C 24.519531 -26.070312 25.722656 -27.625 26.578125 -28.9375 C 27.441406 -30.257812 27.875 -31.203125 27.875 -31.765625 C 27.875 -31.972656 27.742188 -32.078125 27.484375 -32.078125 C 27.054688 -32.078125 26.226562 -31.550781 25 -30.5 C 23.769531 -29.445312 22.28125 -28.035156 20.53125 -26.265625 C 18.789062 -24.492188 16.90625 -22.507812 14.875 -20.3125 C 12.851562 -18.113281 10.835938 -15.847656 8.828125 -13.515625 C 6.828125 -11.191406 4.960938 -8.972656 3.234375 -6.859375 Z M 3.234375 -6.859375 "/></g></g></g><g clip-path="url(#3c3dfbc954)"><path fill="#fafaf9" d="M 345.175781 161.714844 C 339.78125 163.40625 334.449219 164.234375 328.882812 164.234375 L 328.734375 164.234375 C 324.042969 164.21875 319.082031 163.605469 313.574219 162.355469 C 308.644531 161.238281 303.710938 159.714844 298.941406 158.242188 L 298.53125 158.113281 C 293.390625 156.527344 288.054688 155.757812 282.671875 155.820312 C 277.292969 155.886719 271.984375 156.789062 266.871094 158.503906 C 250.132812 164.3125 237.777344 167.003906 229.09375 166.722656 C 221.507812 166.484375 217.621094 164.054688 213.855469 161.714844 C 209.300781 158.875 205.003906 156.199219 194.96875 157.523438 C 189.4375 158.253906 184.1875 157.957031 179.367188 156.648438 C 178.101562 156.296875 176.871094 155.886719 175.671875 155.410156 C 176.257812 155.472656 176.847656 155.515625 177.4375 155.550781 C 186.5 156.0625 194.285156 155.488281 200.582031 153.828125 C 206.269531 152.332031 210.925781 149.914062 214.414062 146.632812 C 217.742188 143.5 220.054688 139.636719 221.480469 134.8125 C 222.597656 131.023438 223.160156 126.613281 223.179688 121.339844 C 223.203125 116.667969 222.453125 112.234375 220.953125 108.15625 C 219.472656 104.128906 217.300781 100.5625 214.503906 97.554688 C 211.664062 94.507812 208.261719 92.121094 204.390625 90.464844 C 200.378906 88.75 195.9375 87.859375 191.203125 87.816406 C 179.210938 87.710938 169.921875 90.957031 163.582031 97.46875 C 154.414062 106.882812 154.605469 119.886719 154.65625 121.339844 L 154.65625 121.347656 C 154.613281 127.585938 155.640625 133.308594 157.6875 138.371094 C 159.675781 143.257812 162.570312 147.410156 166.308594 150.703125 C 167.390625 151.65625 168.535156 152.53125 169.738281 153.332031 C 168.074219 152.847656 166.441406 152.242188 164.871094 151.515625 C 163.195312 150.738281 160.636719 149.179688 159.46875 148.296875 C 155.667969 145.4375 153.054688 141.574219 151.484375 136.484375 C 150.214844 132.390625 149.617188 127.496094 149.589844 121.074219 C 149.5625 113.6875 150.273438 107.710938 151.773438 102.792969 C 153.269531 97.902344 155.546875 94.058594 158.742188 91.046875 C 164.691406 85.433594 174.007812 82.523438 188.945312 81.609375 C 201.160156 80.871094 210.726562 83.667969 217.386719 89.929688 C 221.109375 93.433594 223.929688 98.039062 225.75 103.601562 C 227.40625 108.664062 228.246094 114.492188 228.246094 120.933594 C 228.246094 128.421875 225.25 135.011719 222.347656 141.378906 C 222.199219 141.714844 222.042969 142.050781 221.890625 142.382812 C 220.363281 145.75 220.789062 148.894531 223.125 151.480469 C 225.4375 154.035156 229.449219 155.863281 234.425781 156.640625 C 239.28125 157.394531 244.519531 157.003906 248.789062 155.558594 C 255.363281 153.335938 259.257812 148.902344 259.75 143.082031 C 260.003906 139.984375 259.449219 137.378906 258.738281 134.085938 C 258.628906 133.574219 258.515625 133.046875 258.402344 132.503906 C 257.15625 126.511719 258.390625 120.207031 259.578125 114.113281 C 259.691406 113.539062 259.804688 112.953125 259.910156 112.378906 C 261.46875 104.265625 261.882812 95.972656 261.148438 87.746094 C 260.644531 82.074219 258.011719 76.886719 253.734375 73.128906 C 249.457031 69.371094 243.960938 67.433594 238.28125 67.675781 C 233.707031 67.867188 228.332031 67.839844 223.152344 66.167969 C 217.429688 64.316406 212.703125 60.742188 208.710938 55.257812 C 206.398438 52.074219 201.1875 50.210938 193.230469 49.71875 C 187.089844 49.34375 180.953125 49.875 177.84375 50.230469 C 176.511719 50.382812 175.230469 50.636719 174.035156 50.984375 C 169.957031 52.175781 167.554688 54.175781 165.996094 57.660156 L 165.089844 59.675781 C 163.867188 62.410156 162.804688 64.765625 158.074219 64.023438 C 156.285156 63.746094 153.765625 63.390625 152.136719 63.226562 C 152.082031 63.21875 146.40625 62.828125 140.65625 63.738281 C 138.699219 64.046875 136.957031 64.464844 135.433594 65 C 133.640625 64.941406 132.34375 64.964844 132.1875 64.964844 C 129.925781 64.964844 127.71875 65.582031 125.796875 66.765625 C 123.867188 67.945312 122.308594 69.632812 121.296875 71.648438 C 119.398438 75.441406 118.402344 80.160156 117.902344 83.445312 C 117.371094 86.957031 117.269531 89.640625 117.261719 89.730469 C 117.09375 93.175781 117.605469 98.550781 118.074219 102.449219 C 118.34375 104.71875 118.699219 107.027344 119.15625 109.511719 C 120.402344 116.230469 120.585938 123.066406 119.71875 129.84375 L 119.191406 133.929688 C 118.421875 139.90625 115.183594 145.359375 110.296875 148.890625 C 103.796875 153.578125 96.148438 156.132812 88.175781 156.285156 C 80.332031 156.425781 72.367188 154.25 65.144531 149.972656 L 65.128906 149.964844 C 59.722656 146.980469 54.261719 145.464844 48.890625 145.464844 C 48.816406 145.464844 48.753906 145.464844 48.683594 145.464844 C 44.042969 145.5 39.34375 146.667969 34.734375 148.9375 C 26.363281 153.058594 19.722656 160.046875 15.324219 164.675781 C 13.773438 166.3125 12.484375 167.671875 11.460938 168.554688 L 11.460938 169.734375 C 12.621094 168.859375 14.113281 167.28125 15.988281 165.308594 C 20.335938 160.730469 26.910156 153.808594 35.132812 149.757812 C 39.621094 147.550781 44.175781 146.414062 48.683594 146.375 C 53.964844 146.339844 59.34375 147.8125 64.675781 150.753906 C 72.039062 155.109375 80.167969 157.335938 88.183594 157.1875 C 96.347656 157.039062 104.175781 154.417969 110.820312 149.621094 C 113.363281 147.785156 115.46875 145.488281 117.070312 142.789062 C 118.671875 140.09375 119.691406 137.144531 120.089844 134.035156 L 120.617188 129.949219 C 121.496094 123.082031 121.304688 116.144531 120.046875 109.339844 C 119.589844 106.875 119.234375 104.585938 118.972656 102.335938 C 118.507812 98.464844 117.996094 93.148438 118.167969 89.765625 L 118.167969 89.761719 C 118.167969 89.652344 118.566406 79.121094 122.101562 72.050781 C 123.035156 70.195312 124.472656 68.628906 126.257812 67.539062 C 128.039062 66.453125 130.089844 65.875 132.179688 65.875 L 132.1875 65.875 C 132.203125 65.875 132.613281 65.867188 133.292969 65.875 C 132.976562 66.03125 132.679688 66.1875 132.394531 66.351562 C 129.738281 67.890625 128.230469 69.960938 127.925781 72.507812 C 127.648438 74.765625 129.191406 76.808594 131.433594 77.15625 C 134.550781 77.648438 139.226562 78.117188 143.773438 77.570312 C 145.824219 77.320312 147.226562 75.988281 147.832031 73.71875 C 148.242188 72.160156 148.144531 70.679688 148.125 70.472656 C 148.117188 68.464844 146.757812 66.6875 144.820312 66.136719 C 142.886719 65.597656 140.445312 65.296875 138.222656 65.132812 C 139.027344 64.941406 139.875 64.777344 140.769531 64.636719 C 146.179688 63.78125 151.523438 64.09375 152.023438 64.132812 C 153.640625 64.292969 156.144531 64.644531 157.921875 64.921875 C 160.34375 65.296875 162.078125 64.976562 163.402344 63.910156 C 164.535156 62.992188 165.191406 61.675781 165.914062 60.046875 L 166.820312 58.03125 C 168.265625 54.816406 170.492188 52.972656 174.285156 51.859375 C 175.429688 51.527344 176.664062 51.285156 177.9375 51.136719 C 181.019531 50.785156 187.089844 50.246094 193.167969 50.621094 C 196.648438 50.835938 199.617188 51.328125 202 52.074219 C 204.804688 52.957031 206.8125 54.203125 207.964844 55.78125 C 212.078125 61.433594 216.953125 65.113281 222.867188 67.027344 C 228.191406 68.75 233.664062 68.777344 238.320312 68.578125 C 243.769531 68.34375 249.03125 70.203125 253.128906 73.804688 C 257.230469 77.40625 259.753906 82.378906 260.238281 87.816406 C 260.964844 95.960938 260.550781 104.164062 259.007812 112.199219 C 258.894531 112.777344 258.789062 113.351562 258.671875 113.929688 C 257.464844 120.113281 256.21875 126.503906 257.5 132.683594 C 257.613281 133.230469 257.726562 133.757812 257.832031 134.269531 C 258.523438 137.496094 259.070312 140.042969 258.824219 142.996094 C 258.582031 145.863281 257.484375 148.347656 255.554688 150.390625 C 253.804688 152.25 251.429688 153.691406 248.480469 154.683594 C 239.820312 157.609375 228.285156 155.820312 223.792969 150.859375 C 222.796875 149.757812 222.183594 148.539062 221.976562 147.238281 C 221.757812 145.835938 222 144.328125 222.710938 142.761719 C 222.859375 142.425781 223.015625 142.09375 223.167969 141.757812 C 226.105469 135.296875 229.144531 128.621094 229.144531 120.933594 C 229.144531 114.390625 228.289062 108.472656 226.605469 103.316406 C 224.730469 97.601562 221.835938 92.871094 218 89.261719 C 211.152344 82.8125 201.351562 79.929688 188.875 80.691406 C 181.472656 81.140625 175.515625 82.074219 170.671875 83.53125 C 165.417969 85.113281 161.304688 87.355469 158.101562 90.378906 C 154.792969 93.503906 152.429688 97.476562 150.890625 102.519531 C 149.363281 107.523438 148.636719 113.59375 148.664062 121.074219 C 148.691406 127.585938 149.304688 132.570312 150.601562 136.746094 C 152.230469 142.019531 154.949219 146.042969 158.90625 149.023438 C 160.109375 149.933594 162.75 151.542969 164.472656 152.339844 C 167.011719 153.515625 169.671875 154.375 172.429688 154.917969 C 174.511719 156.011719 176.742188 156.882812 179.105469 157.53125 C 184.042969 158.875 189.410156 159.171875 195.066406 158.433594 C 204.777344 157.152344 208.945312 159.75 213.359375 162.496094 C 217.222656 164.902344 221.222656 167.394531 229.050781 167.644531 C 233.257812 167.777344 238.140625 167.257812 243.976562 166.046875 C 250.554688 164.6875 258.132812 162.503906 267.148438 159.371094 C 272.160156 157.6875 277.378906 156.804688 282.664062 156.738281 C 287.945312 156.675781 293.191406 157.429688 298.238281 158.988281 L 298.644531 159.117188 C 308.207031 162.070312 318.101562 165.125 328.699219 165.152344 L 328.847656 165.152344 C 334.507812 165.152344 339.921875 164.3125 345.410156 162.589844 C 351.386719 160.710938 357.296875 157.84375 363.464844 153.820312 L 363.464844 152.726562 C 357.222656 156.875 351.230469 159.8125 345.175781 161.714844 Z M 144.605469 67.011719 C 146.160156 67.449219 147.242188 68.878906 147.242188 70.488281 L 147.242188 70.53125 C 147.242188 70.542969 147.367188 72.003906 146.96875 73.496094 C 146.457031 75.390625 145.363281 76.449219 143.695312 76.648438 C 139.25 77.191406 134.664062 76.726562 131.605469 76.246094 C 129.847656 75.96875 128.644531 74.371094 128.855469 72.609375 C 129.128906 70.367188 130.480469 68.53125 132.871094 67.132812 C 133.660156 66.679688 134.558594 66.265625 135.570312 65.902344 C 138.25 66.003906 141.96875 66.265625 144.605469 67.011719 Z M 166.933594 150.019531 C 163.3125 146.824219 160.492188 142.789062 158.558594 138.027344 C 156.550781 133.082031 155.546875 127.464844 155.589844 121.347656 C 155.589844 121.347656 155.589844 121.332031 155.589844 121.304688 C 155.566406 120.675781 155.503906 117.351562 156.480469 113.011719 C 157.070312 110.386719 157.929688 107.894531 159.035156 105.609375 C 160.40625 102.777344 162.15625 100.257812 164.25 98.109375 C 170.40625 91.78125 179.472656 88.628906 191.203125 88.734375 C 195.816406 88.777344 200.136719 89.640625 204.035156 91.3125 C 207.792969 92.914062 211.089844 95.226562 213.84375 98.179688 C 216.5625 101.097656 218.667969 104.5625 220.105469 108.472656 C 221.566406 112.441406 222.296875 116.777344 222.277344 121.332031 C 222.25 126.519531 221.707031 130.839844 220.609375 134.546875 C 219.230469 139.210938 217.003906 142.945312 213.792969 145.964844 C 210.417969 149.136719 205.894531 151.488281 200.355469 152.945312 C 194.148438 154.574219 186.464844 155.144531 177.496094 154.640625 C 175.886719 154.546875 174.308594 154.355469 172.753906 154.054688 C 170.664062 152.9375 168.714844 151.585938 166.933594 150.019531 Z M 166.933594 150.019531 " fill-opacity="1" fill-rule="nonzero"/></g><g transform="matrix(1, 0, 0, 1, 143, 254)"><g clip-path="url(#8417f369d8)"><g fill="#fafaf9" fill-opacity="1"><g transform="translate(1.435439, 10.014792)"><g><path d="M 3.59375 -6.109375 C 4.09375 -6.046875 4.484375 -5.863281 4.765625 -5.5625 C 5.046875 -5.257812 5.1875 -4.847656 5.1875 -4.328125 C 5.1875 -3.984375 5.113281 -3.6875 4.96875 -3.4375 C 4.832031 -3.1875 4.644531 -2.984375 4.40625 -2.828125 C 4.164062 -2.679688 3.894531 -2.585938 3.59375 -2.546875 C 3.457031 -2.523438 3.328125 -2.515625 3.203125 -2.515625 C 3.085938 -2.515625 2.953125 -2.515625 2.796875 -2.515625 L 1.65625 -2.515625 L 1.65625 0 L 0.890625 0 L 0.890625 -6.140625 L 2.796875 -6.140625 C 2.953125 -6.140625 3.085938 -6.140625 3.203125 -6.140625 C 3.328125 -6.140625 3.457031 -6.128906 3.59375 -6.109375 Z M 3.546875 -3.203125 C 3.773438 -3.242188 3.96875 -3.351562 4.125 -3.53125 C 4.289062 -3.707031 4.375 -3.972656 4.375 -4.328125 C 4.375 -4.679688 4.289062 -4.945312 4.125 -5.125 C 3.96875 -5.300781 3.773438 -5.410156 3.546875 -5.453125 C 3.460938 -5.472656 3.363281 -5.484375 3.25 -5.484375 C 3.132812 -5.492188 3.007812 -5.5 2.875 -5.5 L 1.65625 -5.5 L 1.65625 -3.15625 L 2.875 -3.15625 C 3.007812 -3.15625 3.132812 -3.15625 3.25 -3.15625 C 3.363281 -3.164062 3.460938 -3.179688 3.546875 -3.203125 Z M 3.546875 -3.203125 "/></g></g></g><g fill="#fafaf9" fill-opacity="1"><g transform="translate(6.762179, 10.014792)"><g/></g></g><g fill="#fafaf9" fill-opacity="1"><g transform="translate(8.686224, 10.014792)"><g><path d="M 5.8125 -6.140625 L 5.8125 0 L 5.046875 0 L 5.046875 -2.6875 L 1.65625 -2.6875 L 1.65625 0 L 0.890625 0 L 0.890625 -6.140625 L 1.65625 -6.140625 L 1.65625 -3.328125 L 5.046875 -3.328125 L 5.046875 -6.140625 Z M 5.8125 -6.140625 "/></g></g></g><g fill="#fafaf9" fill-opacity="1"><g transform="translate(15.188758, 10.014792)"><g/></g></g><g fill="#fafaf9" fill-opacity="1"><g transform="translate(17.112802, 10.014792)"><g><path d="M 3.328125 -6.265625 C 3.941406 -6.265625 4.46875 -6.128906 4.90625 -5.859375 C 5.34375 -5.585938 5.671875 -5.210938 5.890625 -4.734375 C 6.109375 -4.253906 6.21875 -3.703125 6.21875 -3.078125 C 6.21875 -2.453125 6.109375 -1.894531 5.890625 -1.40625 C 5.671875 -0.925781 5.34375 -0.550781 4.90625 -0.28125 C 4.46875 -0.0078125 3.941406 0.125 3.328125 0.125 C 2.703125 0.125 2.171875 -0.0078125 1.734375 -0.28125 C 1.304688 -0.550781 0.976562 -0.925781 0.75 -1.40625 C 0.53125 -1.894531 0.421875 -2.453125 0.421875 -3.078125 C 0.421875 -3.703125 0.53125 -4.253906 0.75 -4.734375 C 0.976562 -5.210938 1.304688 -5.585938 1.734375 -5.859375 C 2.171875 -6.128906 2.703125 -6.265625 3.328125 -6.265625 Z M 3.328125 -0.484375 C 3.972656 -0.484375 4.472656 -0.710938 4.828125 -1.171875 C 5.191406 -1.640625 5.375 -2.273438 5.375 -3.078125 C 5.375 -3.878906 5.191406 -4.507812 4.828125 -4.96875 C 4.472656 -5.4375 3.972656 -5.671875 3.328125 -5.671875 C 2.671875 -5.671875 2.164062 -5.4375 1.8125 -4.96875 C 1.457031 -4.507812 1.28125 -3.878906 1.28125 -3.078125 C 1.28125 -2.273438 1.457031 -1.640625 1.8125 -1.171875 C 2.164062 -0.710938 2.671875 -0.484375 3.328125 -0.484375 Z M 3.328125 -0.484375 "/></g></g></g><g fill="#fafaf9" fill-opacity="1"><g transform="translate(23.677688, 10.014792)"><g/></g></g><g fill="#fafaf9" fill-opacity="1"><g transform="translate(25.601732, 10.014792)"><g><path d="M 5.453125 -5.515625 L 3.265625 -5.515625 L 3.265625 0 L 2.5 0 L 2.5 -5.515625 L 0.296875 -5.515625 L 0.296875 -6.140625 L 5.453125 -6.140625 Z M 5.453125 -5.515625 "/></g></g></g><g fill="#fafaf9" fill-opacity="1"><g transform="translate(31.053178, 10.014792)"><g/></g></g><g fill="#fafaf9" fill-opacity="1"><g transform="translate(32.977222, 10.014792)"><g><path d="M 3.328125 -6.265625 C 3.941406 -6.265625 4.46875 -6.128906 4.90625 -5.859375 C 5.34375 -5.585938 5.671875 -5.210938 5.890625 -4.734375 C 6.109375 -4.253906 6.21875 -3.703125 6.21875 -3.078125 C 6.21875 -2.453125 6.109375 -1.894531 5.890625 -1.40625 C 5.671875 -0.925781 5.34375 -0.550781 4.90625 -0.28125 C 4.46875 -0.0078125 3.941406 0.125 3.328125 0.125 C 2.703125 0.125 2.171875 -0.0078125 1.734375 -0.28125 C 1.304688 -0.550781 0.976562 -0.925781 0.75 -1.40625 C 0.53125 -1.894531 0.421875 -2.453125 0.421875 -3.078125 C 0.421875 -3.703125 0.53125 -4.253906 0.75 -4.734375 C 0.976562 -5.210938 1.304688 -5.585938 1.734375 -5.859375 C 2.171875 -6.128906 2.703125 -6.265625 3.328125 -6.265625 Z M 3.328125 -0.484375 C 3.972656 -0.484375 4.472656 -0.710938 4.828125 -1.171875 C 5.191406 -1.640625 5.375 -2.273438 5.375 -3.078125 C 5.375 -3.878906 5.191406 -4.507812 4.828125 -4.96875 C 4.472656 -5.4375 3.972656 -5.671875 3.328125 -5.671875 C 2.671875 -5.671875 2.164062 -5.4375 1.8125 -4.96875 C 1.457031 -4.507812 1.28125 -3.878906 1.28125 -3.078125 C 1.28125 -2.273438 1.457031 -1.640625 1.8125 -1.171875 C 2.164062 -0.710938 2.671875 -0.484375 3.328125 -0.484375 Z M 3.328125 -0.484375 "/></g></g></g><g fill="#fafaf9" fill-opacity="1"><g transform="translate(39.542109, 10.014792)"><g/></g></g><g fill="#fafaf9" fill-opacity="1"><g transform="translate(41.466153, 10.014792)"><g><path d="M 3.546875 -2.96875 L 5.75 -2.96875 L 5.75 0 L 5.078125 0 L 5.078125 -1.0625 L 4.796875 -0.5 C 4.628906 -0.300781 4.410156 -0.144531 4.140625 -0.03125 C 3.867188 0.0703125 3.554688 0.125 3.203125 0.125 C 2.609375 0.125 2.101562 -0.015625 1.6875 -0.296875 C 1.269531 -0.578125 0.953125 -0.953125 0.734375 -1.421875 C 0.523438 -1.898438 0.421875 -2.441406 0.421875 -3.046875 C 0.421875 -3.671875 0.539062 -4.222656 0.78125 -4.703125 C 1.019531 -5.191406 1.359375 -5.570312 1.796875 -5.84375 C 2.234375 -6.125 2.742188 -6.265625 3.328125 -6.265625 C 3.847656 -6.265625 4.285156 -6.175781 4.640625 -6 C 4.992188 -5.820312 5.269531 -5.578125 5.46875 -5.265625 C 5.664062 -4.953125 5.785156 -4.59375 5.828125 -4.1875 L 5.828125 -4.09375 L 5.0625 -4.09375 L 5.046875 -4.1875 C 4.960938 -4.625 4.773438 -4.976562 4.484375 -5.25 C 4.203125 -5.53125 3.804688 -5.671875 3.296875 -5.671875 C 2.890625 -5.671875 2.53125 -5.554688 2.21875 -5.328125 C 1.914062 -5.109375 1.679688 -4.800781 1.515625 -4.40625 C 1.359375 -4.019531 1.28125 -3.578125 1.28125 -3.078125 C 1.28125 -2.578125 1.359375 -2.128906 1.515625 -1.734375 C 1.671875 -1.347656 1.894531 -1.039062 2.1875 -0.8125 C 2.488281 -0.59375 2.84375 -0.484375 3.25 -0.484375 C 3.582031 -0.484375 3.878906 -0.5625 4.140625 -0.71875 C 4.398438 -0.875 4.601562 -1.09375 4.75 -1.375 C 4.90625 -1.65625 4.984375 -1.976562 4.984375 -2.34375 L 3.546875 -2.34375 Z M 3.546875 -2.96875 "/></g></g></g><g fill="#fafaf9" fill-opacity="1"><g transform="translate(47.790544, 10.014792)"><g/></g></g><g fill="#fafaf9" fill-opacity="1"><g transform="translate(49.714588, 10.014792)"><g><path d="M 4.9375 -1.609375 C 4.96875 -1.210938 5.007812 -0.882812 5.0625 -0.625 C 5.125 -0.375 5.21875 -0.164062 5.34375 0 L 4.5 0 C 4.414062 -0.195312 4.347656 -0.40625 4.296875 -0.625 C 4.253906 -0.851562 4.210938 -1.160156 4.171875 -1.546875 C 4.128906 -1.859375 4.039062 -2.109375 3.90625 -2.296875 C 3.769531 -2.492188 3.550781 -2.609375 3.25 -2.640625 C 3.175781 -2.640625 3.101562 -2.640625 3.03125 -2.640625 C 2.957031 -2.640625 2.882812 -2.640625 2.8125 -2.640625 L 1.65625 -2.640625 L 1.65625 0 L 0.890625 0 L 0.890625 -6.140625 L 2.90625 -6.140625 C 3.0625 -6.140625 3.195312 -6.140625 3.3125 -6.140625 C 3.4375 -6.140625 3.566406 -6.128906 3.703125 -6.109375 C 4.148438 -6.046875 4.515625 -5.882812 4.796875 -5.625 C 5.085938 -5.375 5.234375 -4.988281 5.234375 -4.46875 C 5.234375 -4.195312 5.179688 -3.960938 5.078125 -3.765625 C 4.972656 -3.578125 4.835938 -3.421875 4.671875 -3.296875 C 4.503906 -3.171875 4.328125 -3.078125 4.140625 -3.015625 C 4.390625 -2.898438 4.578125 -2.710938 4.703125 -2.453125 C 4.835938 -2.203125 4.914062 -1.921875 4.9375 -1.609375 Z M 1.65625 -3.265625 L 2.828125 -3.265625 C 2.960938 -3.265625 3.070312 -3.265625 3.15625 -3.265625 C 3.25 -3.273438 3.335938 -3.28125 3.421875 -3.28125 C 3.710938 -3.3125 3.953125 -3.421875 4.140625 -3.609375 C 4.328125 -3.796875 4.421875 -4.0625 4.421875 -4.40625 C 4.421875 -4.75 4.34375 -5.003906 4.1875 -5.171875 C 4.03125 -5.335938 3.804688 -5.441406 3.515625 -5.484375 C 3.367188 -5.503906 3.164062 -5.515625 2.90625 -5.515625 L 1.65625 -5.515625 Z M 1.65625 -3.265625 "/></g></g></g><g fill="#fafaf9" fill-opacity="1"><g transform="translate(55.228386, 10.014792)"><g/></g></g><g fill="#fafaf9" fill-opacity="1"><g transform="translate(57.15243, 10.014792)"><g><path d="M 4.0625 -2.171875 L 1.796875 -2.171875 L 1.078125 0 L 0.265625 0 L 2.46875 -6.140625 L 3.5 -6.140625 L 5.625 0 L 4.796875 0 Z M 2.015625 -2.796875 L 3.859375 -2.796875 L 2.96875 -5.546875 Z M 2.015625 -2.796875 "/></g></g></g><g fill="#fafaf9" fill-opacity="1"><g transform="translate(62.844383, 10.014792)"><g/></g></g><g fill="#fafaf9" fill-opacity="1"><g transform="translate(64.768427, 10.014792)"><g><path d="M 3.59375 -6.109375 C 4.09375 -6.046875 4.484375 -5.863281 4.765625 -5.5625 C 5.046875 -5.257812 5.1875 -4.847656 5.1875 -4.328125 C 5.1875 -3.984375 5.113281 -3.6875 4.96875 -3.4375 C 4.832031 -3.1875 4.644531 -2.984375 4.40625 -2.828125 C 4.164062 -2.679688 3.894531 -2.585938 3.59375 -2.546875 C 3.457031 -2.523438 3.328125 -2.515625 3.203125 -2.515625 C 3.085938 -2.515625 2.953125 -2.515625 2.796875 -2.515625 L 1.65625 -2.515625 L 1.65625 0 L 0.890625 0 L 0.890625 -6.140625 L 2.796875 -6.140625 C 2.953125 -6.140625 3.085938 -6.140625 3.203125 -6.140625 C 3.328125 -6.140625 3.457031 -6.128906 3.59375 -6.109375 Z M 3.546875 -3.203125 C 3.773438 -3.242188 3.96875 -3.351562 4.125 -3.53125 C 4.289062 -3.707031 4.375 -3.972656 4.375 -4.328125 C 4.375 -4.679688 4.289062 -4.945312 4.125 -5.125 C 3.96875 -5.300781 3.773438 -5.410156 3.546875 -5.453125 C 3.460938 -5.472656 3.363281 -5.484375 3.25 -5.484375 C 3.132812 -5.492188 3.007812 -5.5 2.875 -5.5 L 1.65625 -5.5 L 1.65625 -3.15625 L 2.875 -3.15625 C 3.007812 -3.15625 3.132812 -3.15625 3.25 -3.15625 C 3.363281 -3.164062 3.460938 -3.179688 3.546875 -3.203125 Z M 3.546875 -3.203125 "/></g></g></g><g fill="#fafaf9" fill-opacity="1"><g transform="translate(70.097603, 10.014792)"><g/></g></g><g fill="#fafaf9" fill-opacity="1"><g transform="translate(72.021647, 10.014792)"><g/></g></g><g fill="#fafaf9" fill-opacity="1"><g transform="translate(73.948252, 10.014792)"><g><path d="M 5.8125 -6.140625 L 5.8125 0 L 5.046875 0 L 5.046875 -2.6875 L 1.65625 -2.6875 L 1.65625 0 L 0.890625 0 L 0.890625 -6.140625 L 1.65625 -6.140625 L 1.65625 -3.328125 L 5.046875 -3.328125 L 5.046875 -6.140625 Z M 5.8125 -6.140625 "/></g></g></g><g fill="#fafaf9" fill-opacity="1"><g transform="translate(80.450785, 10.014792)"><g/></g></g><g fill="#fafaf9" fill-opacity="1"><g transform="translate(82.37483, 10.014792)"><g><path d="M 3.109375 -2.421875 L 3.109375 0 L 2.34375 0 L 2.34375 -2.421875 L 0.171875 -6.140625 L 1.046875 -6.140625 L 2.765625 -3.15625 L 4.421875 -6.140625 L 5.28125 -6.140625 Z M 3.109375 -2.421875 "/></g></g></g></g></g></svg>