<svg xmlns="http://www.w3.org/2000/svg" xmlns:xlink="http://www.w3.org/1999/xlink" width="500" zoomAndPan="magnify" viewBox="0 0 375 374.999991" height="500" preserveAspectRatio="xMidYMid meet" version="1.0"><defs><g/><clipPath id="cedcd6b92f"><path d="M 37.5 71.445312 L 337.5 71.445312 L 337.5 174 L 37.5 174 Z M 37.5 71.445312 " clip-rule="nonzero"/></clipPath><clipPath id="2c46d0149f"><rect x="0" width="90" y="0" height="13"/></clipPath></defs><rect x="-37.5" width="450" fill="#ffffff" y="-37.499999" height="449.999989" fill-opacity="1"/><rect x="-37.5" width="450" fill="#ffffff" y="-37.499999" height="449.999989" fill-opacity="1"/><g fill="#fafaf9" fill-opacity="1"><g transform="translate(118.562769, 229.468111)"><g><path d="M -7.3125 10.421875 C -9.207031 10.421875 -10.15625 9.640625 -10.15625 8.078125 C -10.15625 6.878906 -9.691406 5.707031 -8.765625 4.5625 C -7.835938 3.414062 -6.640625 2.390625 -5.171875 1.484375 C -3.703125 0.578125 -2.140625 -0.140625 -0.484375 -0.671875 C 1.171875 -1.210938 2.734375 -1.484375 4.203125 -1.484375 C 5.835938 -1.484375 7.304688 -1.179688 8.609375 -0.578125 C 9.210938 -1.222656 9.8125 -1.890625 10.40625 -2.578125 C 11.007812 -3.273438 11.59375 -3.988281 12.15625 -4.71875 C 13.019531 -5.757812 13.9375 -6.945312 14.90625 -8.28125 C 15.875 -9.613281 16.789062 -10.976562 17.65625 -12.375 C 18.519531 -13.78125 19.222656 -15.109375 19.765625 -16.359375 C 20.304688 -17.609375 20.578125 -18.625 20.578125 -19.40625 C 20.578125 -20.53125 19.820312 -21.09375 18.3125 -21.09375 C 17.1875 -21.09375 15.847656 -20.753906 14.296875 -20.078125 C 12.742188 -19.410156 11.320312 -18.582031 10.03125 -17.59375 C 8.34375 -16.257812 6.882812 -14.78125 5.65625 -13.15625 C 4.425781 -11.539062 3.707031 -10.175781 3.5 -9.0625 C 3.5 -8.84375 3.367188 -8.734375 3.109375 -8.734375 C 2.890625 -8.734375 2.78125 -8.863281 2.78125 -9.125 L 2.78125 -9.1875 C 3 -10.4375 3.742188 -11.910156 5.015625 -13.609375 C 6.285156 -15.316406 7.804688 -16.835938 9.578125 -18.171875 C 10.910156 -19.253906 12.394531 -20.128906 14.03125 -20.796875 C 15.675781 -21.460938 17.101562 -21.796875 18.3125 -21.796875 C 20.332031 -21.796875 21.34375 -21 21.34375 -19.40625 C 21.34375 -18.539062 21.0625 -17.460938 20.5 -16.171875 C 19.945312 -14.878906 19.226562 -13.507812 18.34375 -12.0625 C 17.457031 -10.613281 16.515625 -9.195312 15.515625 -7.8125 C 14.523438 -6.4375 13.601562 -5.234375 12.75 -4.203125 C 12.1875 -3.515625 11.613281 -2.835938 11.03125 -2.171875 C 10.445312 -1.503906 9.875 -0.867188 9.3125 -0.265625 C 10.820312 0.554688 11.859375 1.785156 12.421875 3.421875 L 12.421875 3.5625 C 12.421875 3.820312 12.3125 3.953125 12.09375 3.953125 C 11.925781 3.953125 11.796875 3.863281 11.703125 3.6875 C 11.191406 2.175781 10.222656 1.054688 8.796875 0.328125 C 5.691406 3.597656 2.800781 6.097656 0.125 7.828125 C -2.539062 9.554688 -5.019531 10.421875 -7.3125 10.421875 Z M -7.3125 9.703125 C -5.15625 9.703125 -2.800781 8.859375 -0.25 7.171875 C 2.289062 5.492188 5.066406 3.082031 8.078125 -0.0625 C 7.046875 -0.5 5.753906 -0.71875 4.203125 -0.71875 C 2.648438 -0.71875 1.085938 -0.445312 -0.484375 0.09375 C -2.054688 0.632812 -3.519531 1.335938 -4.875 2.203125 C -6.238281 3.066406 -7.328125 4.015625 -8.140625 5.046875 C -8.960938 6.078125 -9.375 7.085938 -9.375 8.078125 C -9.375 9.160156 -8.6875 9.703125 -7.3125 9.703125 Z M -7.3125 9.703125 "/></g></g></g><g fill="#fafaf9" fill-opacity="1"><g transform="translate(137.451528, 229.468111)"><g><path d="M 4.984375 1.296875 C 4.203125 1.296875 3.640625 0.972656 3.296875 0.328125 C 2.953125 -0.316406 2.867188 -1.160156 3.046875 -2.203125 C 3.296875 -3.671875 3.914062 -5.234375 4.90625 -6.890625 C 5.90625 -8.546875 7.101562 -10.148438 8.5 -11.703125 C 9.90625 -13.253906 11.375 -14.65625 12.90625 -15.90625 C 14.4375 -17.15625 15.878906 -18.132812 17.234375 -18.84375 C 18.597656 -19.5625 19.6875 -19.878906 20.5 -19.796875 C 20.757812 -19.710938 20.890625 -19.582031 20.890625 -19.40625 C 20.890625 -19.144531 20.757812 -19.015625 20.5 -19.015625 L 20.4375 -19.015625 C 19.664062 -19.097656 18.640625 -18.804688 17.359375 -18.140625 C 16.085938 -17.472656 14.71875 -16.535156 13.25 -15.328125 C 11.789062 -14.117188 10.390625 -12.757812 9.046875 -11.25 C 7.710938 -9.738281 6.5625 -8.1875 5.59375 -6.59375 C 4.625 -5 4.007812 -3.488281 3.75 -2.0625 C 3.488281 -0.34375 3.898438 0.515625 4.984375 0.515625 C 6.316406 0.515625 7.78125 0.03125 9.375 -0.9375 C 10.96875 -1.90625 12.550781 -3.164062 14.125 -4.71875 C 15.707031 -6.269531 17.164062 -7.90625 18.5 -9.625 C 19.832031 -11.351562 20.941406 -13.003906 21.828125 -14.578125 C 22.710938 -16.160156 23.242188 -17.425781 23.421875 -18.375 C 23.679688 -19.882812 23.054688 -20.640625 21.546875 -20.640625 C 21.328125 -20.640625 21.21875 -20.765625 21.21875 -21.015625 C 21.21875 -21.273438 21.328125 -21.40625 21.546875 -21.40625 C 22.535156 -21.40625 23.265625 -21.125 23.734375 -20.5625 C 24.210938 -20.007812 24.34375 -19.234375 24.125 -18.234375 C 23.957031 -17.242188 23.421875 -15.941406 22.515625 -14.328125 C 21.609375 -12.710938 20.460938 -11.007812 19.078125 -9.21875 C 17.703125 -7.425781 16.191406 -5.734375 14.546875 -4.140625 C 12.910156 -2.546875 11.257812 -1.238281 9.59375 -0.21875 C 7.9375 0.789062 6.398438 1.296875 4.984375 1.296875 Z M 4.984375 1.296875 "/></g></g></g><g fill="#fafaf9" fill-opacity="1"><g transform="translate(153.558731, 229.468111)"><g/></g></g><g fill="#fafaf9" fill-opacity="1"><g transform="translate(167.854678, 229.468111)"><g><path d="M 4.921875 4.40625 C 4.097656 4.40625 3.394531 4.285156 2.8125 4.046875 C 2.226562 3.804688 1.9375 3.472656 1.9375 3.046875 C 1.9375 2.648438 2.195312 2.269531 2.71875 1.90625 C 3.238281 1.539062 4.195312 1.078125 5.59375 0.515625 C 7 -0.046875 9.082031 -0.78125 11.84375 -1.6875 C 11.320312 -2.757812 9.984375 -3.921875 7.828125 -5.171875 C 6.398438 -5.953125 5.222656 -6.796875 4.296875 -7.703125 C 3.367188 -8.609375 3.035156 -9.789062 3.296875 -11.25 C 3.554688 -12.550781 4.300781 -13.800781 5.53125 -15 C 6.757812 -16.207031 8.242188 -17.285156 9.984375 -18.234375 C 11.734375 -19.191406 13.546875 -19.945312 15.421875 -20.5 C 17.296875 -21.0625 18.988281 -21.34375 20.5 -21.34375 C 22.144531 -21.34375 23.351562 -21.007812 24.125 -20.34375 C 24.90625 -19.675781 25.1875 -18.71875 24.96875 -17.46875 C 24.582031 -15.269531 23.09375 -13.285156 20.5 -11.515625 C 20.457031 -11.472656 20.375 -11.453125 20.25 -11.453125 C 19.988281 -11.453125 19.859375 -11.554688 19.859375 -11.765625 C 19.859375 -11.859375 19.921875 -11.96875 20.046875 -12.09375 C 22.554688 -13.820312 23.957031 -15.65625 24.25 -17.59375 C 24.601562 -19.625 23.351562 -20.640625 20.5 -20.640625 C 19.039062 -20.640625 17.40625 -20.367188 15.59375 -19.828125 C 13.78125 -19.285156 12.039062 -18.5625 10.375 -17.65625 C 8.71875 -16.75 7.304688 -15.734375 6.140625 -14.609375 C 4.984375 -13.492188 4.296875 -12.332031 4.078125 -11.125 C 3.859375 -9.914062 4.132812 -8.921875 4.90625 -8.140625 C 5.6875 -7.367188 6.769531 -6.597656 8.15625 -5.828125 C 9.3125 -5.128906 10.253906 -4.46875 10.984375 -3.84375 C 11.722656 -3.21875 12.242188 -2.5625 12.546875 -1.875 L 14.109375 -2.390625 L 25.15625 -6.140625 C 25.15625 -6.140625 25.164062 -6.140625 25.1875 -6.140625 C 25.21875 -6.140625 25.253906 -6.140625 25.296875 -6.140625 C 25.503906 -6.140625 25.609375 -6.007812 25.609375 -5.75 C 25.609375 -5.582031 25.523438 -5.476562 25.359375 -5.4375 C 23.242188 -4.695312 21.257812 -4.015625 19.40625 -3.390625 C 17.550781 -2.765625 15.867188 -2.195312 14.359375 -1.6875 L 12.75 -1.171875 C 13.09375 -0.347656 12.882812 0.492188 12.125 1.359375 C 11.375 2.222656 10.335938 2.945312 9.015625 3.53125 C 7.703125 4.113281 6.335938 4.40625 4.921875 4.40625 Z M 4.921875 3.6875 C 6.035156 3.6875 7.15625 3.46875 8.28125 3.03125 C 9.40625 2.601562 10.332031 2.066406 11.0625 1.421875 C 11.789062 0.773438 12.15625 0.128906 12.15625 -0.515625 C 12.15625 -0.691406 12.132812 -0.84375 12.09375 -0.96875 C 9.550781 -0.101562 7.597656 0.582031 6.234375 1.09375 C 4.878906 1.613281 3.953125 2.015625 3.453125 2.296875 C 2.960938 2.578125 2.71875 2.828125 2.71875 3.046875 C 2.71875 3.210938 2.921875 3.359375 3.328125 3.484375 C 3.742188 3.617188 4.273438 3.6875 4.921875 3.6875 Z M 4.921875 3.6875 "/></g></g></g><g fill="#fafaf9" fill-opacity="1"><g transform="translate(191.206884, 229.468111)"><g><path d="M -1.8125 0.390625 C -2.195312 0.304688 -2.390625 0.0859375 -2.390625 -0.265625 C -2.390625 -0.566406 -2.097656 -1.15625 -1.515625 -2.03125 C -0.929688 -2.914062 -0.210938 -3.863281 0.640625 -4.875 C 1.503906 -5.894531 2.304688 -6.75 3.046875 -7.4375 C 3.085938 -7.476562 3.171875 -7.5 3.296875 -7.5 C 3.554688 -7.5 3.6875 -7.367188 3.6875 -7.109375 C 3.6875 -7.023438 3.644531 -6.941406 3.5625 -6.859375 C 2.519531 -5.910156 1.566406 -4.894531 0.703125 -3.8125 C -0.148438 -2.738281 -0.773438 -1.859375 -1.171875 -1.171875 C -1.253906 -1.035156 -1.25 -0.945312 -1.15625 -0.90625 C -1.070312 -0.863281 -0.988281 -0.863281 -0.90625 -0.90625 C -0.5625 -1.125 -0.15625 -1.425781 0.3125 -1.8125 C 0.789062 -2.195312 1.375 -2.671875 2.0625 -3.234375 C 4.476562 -5.210938 6.28125 -6.601562 7.46875 -7.40625 C 8.65625 -8.207031 9.550781 -8.609375 10.15625 -8.609375 C 11.0625 -8.609375 11.515625 -8.285156 11.515625 -7.640625 C 11.515625 -7.078125 10.820312 -5.738281 9.4375 -3.625 L 8.46875 -2.0625 C 8.382812 -1.9375 8.375 -1.84375 8.4375 -1.78125 C 8.5 -1.71875 8.597656 -1.707031 8.734375 -1.75 L 10.15625 -2.65625 C 10.882812 -3.082031 11.648438 -3.5 12.453125 -3.90625 C 13.253906 -4.320312 13.867188 -4.53125 14.296875 -4.53125 C 14.859375 -4.53125 15.140625 -4.226562 15.140625 -3.625 C 15.140625 -3.445312 15.128906 -3.269531 15.109375 -3.09375 C 15.085938 -2.925781 15.078125 -2.757812 15.078125 -2.59375 C 15.023438 -2.414062 14.988281 -2.21875 14.96875 -2 C 14.945312 -1.789062 14.9375 -1.578125 14.9375 -1.359375 C 14.9375 -1.015625 15.238281 -0.84375 15.84375 -0.84375 C 16.664062 -0.84375 17.785156 -1.207031 19.203125 -1.9375 C 20.628906 -2.675781 22.570312 -3.882812 25.03125 -5.5625 C 25.070312 -5.601562 25.140625 -5.625 25.234375 -5.625 C 25.484375 -5.625 25.609375 -5.515625 25.609375 -5.296875 C 25.609375 -5.171875 25.546875 -5.066406 25.421875 -4.984375 C 22.921875 -3.253906 20.925781 -2.007812 19.4375 -1.25 C 17.945312 -0.5 16.75 -0.125 15.84375 -0.125 C 14.769531 -0.125 14.234375 -0.535156 14.234375 -1.359375 C 14.234375 -1.578125 14.234375 -1.800781 14.234375 -2.03125 C 14.234375 -2.269531 14.253906 -2.476562 14.296875 -2.65625 C 14.335938 -2.863281 14.367188 -3.039062 14.390625 -3.1875 C 14.410156 -3.34375 14.421875 -3.488281 14.421875 -3.625 C 14.421875 -3.75 14.335938 -3.8125 14.171875 -3.8125 C 13.953125 -3.8125 13.570312 -3.679688 13.03125 -3.421875 C 12.488281 -3.171875 11.660156 -2.695312 10.546875 -2 C 9.679688 -1.445312 9.050781 -1.070312 8.65625 -0.875 C 8.269531 -0.675781 7.972656 -0.578125 7.765625 -0.578125 C 7.460938 -0.578125 7.3125 -0.773438 7.3125 -1.171875 C 7.3125 -1.378906 7.414062 -1.6875 7.625 -2.09375 C 7.84375 -2.507812 8.253906 -3.148438 8.859375 -4.015625 C 9.546875 -5.085938 10.03125 -5.894531 10.3125 -6.4375 C 10.59375 -6.976562 10.734375 -7.351562 10.734375 -7.5625 C 10.734375 -7.78125 10.601562 -7.890625 10.34375 -7.890625 C 9.832031 -7.890625 9.144531 -7.617188 8.28125 -7.078125 C 7.414062 -6.546875 6.488281 -5.878906 5.5 -5.078125 C 4.507812 -4.273438 3.515625 -3.488281 2.515625 -2.71875 C 1.054688 -1.507812 0.0351562 -0.6875 -0.546875 -0.25 C -1.128906 0.175781 -1.550781 0.390625 -1.8125 0.390625 Z M -1.8125 0.390625 "/></g></g></g><g fill="#fafaf9" fill-opacity="1"><g transform="translate(215.011898, 229.468111)"><g><path d="M 4.65625 -8.34375 C 4.394531 -8.34375 4.265625 -8.453125 4.265625 -8.671875 C 4.265625 -8.796875 4.285156 -8.878906 4.328125 -8.921875 L 4.59375 -9.1875 C 4.675781 -9.3125 4.78125 -9.457031 4.90625 -9.625 C 5.039062 -9.800781 5.128906 -9.9375 5.171875 -10.03125 C 5.253906 -10.113281 5.363281 -10.15625 5.5 -10.15625 C 5.71875 -10.15625 5.828125 -10.023438 5.828125 -9.765625 C 5.828125 -9.640625 5.800781 -9.554688 5.75 -9.515625 C 5.582031 -9.335938 5.390625 -9.078125 5.171875 -8.734375 L 4.921875 -8.46875 C 4.867188 -8.382812 4.78125 -8.34375 4.65625 -8.34375 Z M 0.515625 0.390625 C -0.648438 0.390625 -1.234375 -0.171875 -1.234375 -1.296875 C -1.234375 -1.898438 -0.875 -2.726562 -0.15625 -3.78125 C 0.550781 -4.84375 1.507812 -5.976562 2.71875 -7.1875 C 2.757812 -7.226562 2.84375 -7.25 2.96875 -7.25 C 3.226562 -7.25 3.359375 -7.140625 3.359375 -6.921875 C 3.359375 -6.835938 3.316406 -6.75 3.234375 -6.65625 C 2.148438 -5.539062 1.253906 -4.484375 0.546875 -3.484375 C -0.160156 -2.492188 -0.515625 -1.765625 -0.515625 -1.296875 C -0.515625 -0.691406 -0.171875 -0.390625 0.515625 -0.390625 C 1.035156 -0.390625 1.78125 -0.550781 2.75 -0.875 C 3.71875 -1.195312 4.804688 -1.625 6.015625 -2.15625 C 7.222656 -2.695312 8.40625 -3.269531 9.5625 -3.875 C 10.726562 -4.476562 11.722656 -5.0625 12.546875 -5.625 L 12.75 -5.625 C 13 -5.625 13.125 -5.515625 13.125 -5.296875 C 13.125 -5.171875 13.082031 -5.066406 13 -4.984375 C 12.132812 -4.421875 11.109375 -3.828125 9.921875 -3.203125 C 8.742188 -2.578125 7.53125 -1.992188 6.28125 -1.453125 C 5.03125 -0.910156 3.894531 -0.46875 2.875 -0.125 C 1.863281 0.21875 1.078125 0.390625 0.515625 0.390625 Z M 0.515625 0.390625 "/></g></g></g><g fill="#fafaf9" fill-opacity="1"><g transform="translate(226.332221, 229.468111)"><g><path d="M -13.65625 16.4375 C -14.039062 16.4375 -14.164062 16.21875 -14.03125 15.78125 L -13.96875 15.71875 C -13.925781 15.632812 -13.894531 15.554688 -13.875 15.484375 C -13.851562 15.421875 -13.820312 15.367188 -13.78125 15.328125 C -10.675781 10.453125 -7.210938 5.515625 -3.390625 0.515625 C 0.421875 -4.484375 4.351562 -9.378906 8.40625 -14.171875 C 5.644531 -14.035156 2.9375 -13.859375 0.28125 -13.640625 C -2.363281 -13.429688 -4.894531 -13.15625 -7.3125 -12.8125 L -7.375 -12.8125 C -7.632812 -12.8125 -7.765625 -12.941406 -7.765625 -13.203125 C -7.765625 -13.367188 -7.65625 -13.492188 -7.4375 -13.578125 C -4.894531 -13.929688 -2.234375 -14.210938 0.546875 -14.421875 C 3.328125 -14.640625 6.164062 -14.789062 9.0625 -14.875 C 10.863281 -17.03125 12.679688 -19.128906 14.515625 -21.171875 C 16.347656 -23.222656 18.171875 -25.242188 19.984375 -27.234375 C 20.078125 -27.316406 20.164062 -27.359375 20.25 -27.359375 C 20.507812 -27.359375 20.640625 -27.226562 20.640625 -26.96875 C 20.640625 -26.84375 20.617188 -26.757812 20.578125 -26.71875 C 18.847656 -24.863281 17.109375 -22.941406 15.359375 -20.953125 C 13.617188 -18.972656 11.863281 -16.96875 10.09375 -14.9375 C 15.519531 -15.15625 20.929688 -15.15625 26.328125 -14.9375 C 26.546875 -14.9375 26.65625 -14.804688 26.65625 -14.546875 C 26.65625 -14.335938 26.523438 -14.234375 26.265625 -14.234375 C 23.503906 -14.316406 20.695312 -14.359375 17.84375 -14.359375 C 15 -14.359375 12.175781 -14.296875 9.375 -14.171875 C 5.363281 -9.460938 1.460938 -4.640625 -2.328125 0.296875 C -6.117188 5.234375 -9.546875 10.113281 -12.609375 14.9375 C -12.441406 15.03125 -12.441406 15.179688 -12.609375 15.390625 C -12.785156 15.648438 -12.957031 15.890625 -13.125 16.109375 C -13.300781 16.328125 -13.476562 16.4375 -13.65625 16.4375 Z M -13.65625 16.4375 "/></g></g></g><g fill="#fafaf9" fill-opacity="1"><g transform="translate(235.970664, 229.468111)"><g><path d="M -3.953125 3.875 C -4.296875 3.875 -4.46875 3.703125 -4.46875 3.359375 C -4.46875 2.796875 -3.945312 1.71875 -2.90625 0.125 C -1.875 -1.46875 -0.5 -3.363281 1.21875 -5.5625 C 2.945312 -7.757812 4.867188 -10.097656 6.984375 -12.578125 C 9.097656 -15.054688 11.242188 -17.492188 13.421875 -19.890625 C 15.597656 -22.285156 17.65625 -24.460938 19.59375 -26.421875 C 21.539062 -28.390625 23.210938 -29.953125 24.609375 -31.109375 C 26.015625 -32.273438 26.972656 -32.859375 27.484375 -32.859375 C 28.222656 -32.859375 28.59375 -32.492188 28.59375 -31.765625 C 28.59375 -31.117188 28.109375 -30.0625 27.140625 -28.59375 C 26.171875 -27.125 24.832031 -25.421875 23.125 -23.484375 C 21.425781 -21.546875 19.441406 -19.484375 17.171875 -17.296875 C 14.910156 -15.117188 12.460938 -12.972656 9.828125 -10.859375 C 7.203125 -8.753906 4.507812 -6.816406 1.75 -5.046875 C 0.707031 -3.710938 -0.207031 -2.492188 -1 -1.390625 C -1.800781 -0.285156 -2.4375 0.648438 -2.90625 1.421875 C -3.164062 1.847656 -3.226562 2.0625 -3.09375 2.0625 C -2.96875 2.0625 -2.753906 1.890625 -2.453125 1.546875 C -2.023438 1.117188 -1.550781 0.65625 -1.03125 0.15625 C -0.519531 -0.332031 0.015625 -0.835938 0.578125 -1.359375 C 4.378906 -4.941406 6.925781 -6.734375 8.21875 -6.734375 C 8.820312 -6.734375 9.125 -6.40625 9.125 -5.75 C 9.125 -5.445312 9.054688 -5.101562 8.921875 -4.71875 C 8.796875 -4.332031 8.644531 -3.945312 8.46875 -3.5625 C 8.34375 -3.164062 8.210938 -2.796875 8.078125 -2.453125 C 7.953125 -2.109375 7.890625 -1.804688 7.890625 -1.546875 C 7.890625 -0.816406 8.363281 -0.453125 9.3125 -0.453125 C 10.257812 -0.453125 11.5 -0.734375 13.03125 -1.296875 C 14.5625 -1.859375 16.113281 -2.535156 17.6875 -3.328125 C 19.257812 -4.128906 20.609375 -4.894531 21.734375 -5.625 L 21.921875 -5.625 C 22.179688 -5.625 22.3125 -5.515625 22.3125 -5.296875 C 22.3125 -5.171875 22.25 -5.066406 22.125 -4.984375 C 21 -4.242188 19.628906 -3.460938 18.015625 -2.640625 C 16.398438 -1.828125 14.804688 -1.128906 13.234375 -0.546875 C 11.660156 0.0351562 10.351562 0.328125 9.3125 0.328125 C 7.894531 0.328125 7.1875 -0.296875 7.1875 -1.546875 C 7.1875 -1.890625 7.25 -2.265625 7.375 -2.671875 C 7.5 -3.085938 7.648438 -3.488281 7.828125 -3.875 C 7.953125 -4.226562 8.078125 -4.578125 8.203125 -4.921875 C 8.335938 -5.265625 8.40625 -5.539062 8.40625 -5.75 C 8.40625 -5.925781 8.34375 -6.015625 8.21875 -6.015625 C 7.132812 -6.015625 4.757812 -4.289062 1.09375 -0.84375 C 0.539062 -0.28125 0.00390625 0.242188 -0.515625 0.734375 C -1.035156 1.234375 -1.507812 1.675781 -1.9375 2.0625 C -2.414062 2.582031 -2.835938 3.015625 -3.203125 3.359375 C -3.566406 3.703125 -3.816406 3.875 -3.953125 3.875 Z M 3.234375 -6.859375 C 5.816406 -8.628906 8.328125 -10.523438 10.765625 -12.546875 C 13.203125 -14.578125 15.457031 -16.59375 17.53125 -18.59375 C 19.601562 -20.601562 21.414062 -22.5 22.96875 -24.28125 C 24.519531 -26.070312 25.722656 -27.625 26.578125 -28.9375 C 27.441406 -30.257812 27.875 -31.203125 27.875 -31.765625 C 27.875 -31.972656 27.742188 -32.078125 27.484375 -32.078125 C 27.054688 -32.078125 26.226562 -31.550781 25 -30.5 C 23.769531 -29.445312 22.28125 -28.035156 20.53125 -26.265625 C 18.789062 -24.492188 16.90625 -22.507812 14.875 -20.3125 C 12.851562 -18.113281 10.835938 -15.847656 8.828125 -13.515625 C 6.828125 -11.191406 4.960938 -8.972656 3.234375 -6.859375 Z M 3.234375 -6.859375 "/></g></g></g><g clip-path="url(#cedcd6b92f)"><path fill="#fafaf9" d="M 321.550781 166.953125 C 316.964844 168.390625 312.429688 169.09375 307.699219 169.09375 L 307.574219 169.09375 C 303.585938 169.082031 299.367188 168.5625 294.683594 167.496094 C 290.492188 166.546875 286.300781 165.253906 282.246094 164 L 281.894531 163.890625 C 277.527344 162.542969 272.988281 161.886719 268.414062 161.941406 C 263.839844 161.996094 259.324219 162.765625 254.980469 164.222656 C 240.75 169.160156 230.246094 171.449219 222.867188 171.210938 C 216.414062 171.007812 213.113281 168.941406 209.910156 166.953125 C 206.039062 164.539062 202.382812 162.261719 193.851562 163.386719 C 189.152344 164.011719 184.6875 163.757812 180.589844 162.644531 C 179.511719 162.347656 178.464844 161.996094 177.449219 161.589844 C 177.945312 161.644531 178.449219 161.683594 178.949219 161.710938 C 186.652344 162.148438 193.273438 161.65625 198.625 160.25 C 203.460938 158.976562 207.417969 156.921875 210.382812 154.132812 C 213.214844 151.46875 215.179688 148.183594 216.390625 144.082031 C 217.339844 140.863281 217.820312 137.109375 217.835938 132.628906 C 217.855469 128.660156 217.21875 124.890625 215.945312 121.421875 C 214.683594 117.996094 212.839844 114.964844 210.460938 112.40625 C 208.046875 109.816406 205.15625 107.789062 201.863281 106.378906 C 198.453125 104.921875 194.675781 104.164062 190.652344 104.128906 C 180.457031 104.039062 172.5625 106.796875 167.171875 112.335938 C 159.378906 120.339844 159.539062 131.394531 159.582031 132.628906 L 159.582031 132.632812 C 159.546875 137.941406 160.417969 142.804688 162.160156 147.105469 C 163.847656 151.261719 166.3125 154.789062 169.488281 157.59375 C 170.40625 158.402344 171.382812 159.148438 172.402344 159.824219 C 170.988281 159.414062 169.601562 158.898438 168.265625 158.28125 C 166.84375 157.621094 164.664062 156.296875 163.671875 155.546875 C 160.441406 153.113281 158.222656 149.828125 156.882812 145.503906 C 155.808594 142.023438 155.300781 137.863281 155.273438 132.402344 C 155.25 126.125 155.855469 121.039062 157.132812 116.859375 C 158.402344 112.703125 160.339844 109.4375 163.054688 106.875 C 168.113281 102.101562 176.035156 99.628906 188.734375 98.855469 C 199.117188 98.222656 207.25 100.601562 212.914062 105.925781 C 216.078125 108.902344 218.472656 112.816406 220.023438 117.550781 C 221.429688 121.851562 222.144531 126.808594 222.144531 132.28125 C 222.144531 138.648438 219.597656 144.25 217.128906 149.667969 C 217.003906 149.949219 216.871094 150.234375 216.742188 150.519531 C 215.441406 153.382812 215.804688 156.054688 217.789062 158.25 C 219.753906 160.425781 223.167969 161.980469 227.398438 162.636719 C 231.523438 163.28125 235.976562 162.945312 239.605469 161.71875 C 245.199219 159.832031 248.507812 156.0625 248.925781 151.113281 C 249.144531 148.480469 248.671875 146.265625 248.066406 143.464844 C 247.976562 143.027344 247.878906 142.582031 247.78125 142.121094 C 246.722656 137.027344 247.769531 131.664062 248.78125 126.488281 C 248.875 125.996094 248.972656 125.5 249.0625 125.011719 C 250.390625 118.113281 250.738281 111.0625 250.117188 104.070312 C 249.6875 99.246094 247.449219 94.835938 243.8125 91.640625 C 240.175781 88.445312 235.503906 86.800781 230.675781 87.007812 C 226.785156 87.171875 222.21875 87.144531 217.8125 85.722656 C 212.949219 84.152344 208.929688 81.113281 205.535156 76.449219 C 203.570312 73.742188 199.140625 72.160156 192.375 71.742188 C 187.15625 71.421875 181.941406 71.875 179.296875 72.175781 C 178.164062 72.304688 177.074219 72.523438 176.058594 72.816406 C 172.589844 73.828125 170.546875 75.527344 169.222656 78.492188 L 168.453125 80.207031 C 167.414062 82.53125 166.511719 84.53125 162.488281 83.902344 C 160.96875 83.667969 158.828125 83.363281 157.441406 83.226562 C 157.390625 83.21875 152.570312 82.886719 147.679688 83.660156 C 146.015625 83.921875 144.535156 84.277344 143.242188 84.730469 C 141.714844 84.683594 140.613281 84.703125 140.480469 84.703125 C 138.558594 84.703125 136.679688 85.226562 135.046875 86.230469 C 133.40625 87.238281 132.082031 88.671875 131.222656 90.382812 C 129.609375 93.609375 128.761719 97.621094 128.335938 100.414062 C 127.882812 103.398438 127.800781 105.679688 127.792969 105.757812 C 127.648438 108.6875 128.082031 113.253906 128.484375 116.570312 C 128.714844 118.5 129.015625 120.460938 129.402344 122.570312 C 130.460938 128.285156 130.617188 134.097656 129.878906 139.859375 L 129.433594 143.332031 C 128.78125 148.414062 126.027344 153.046875 121.871094 156.050781 C 116.34375 160.035156 109.839844 162.207031 103.066406 162.335938 C 96.398438 162.457031 89.625 160.605469 83.484375 156.96875 L 83.472656 156.964844 C 78.875 154.429688 74.234375 153.140625 69.664062 153.140625 C 69.605469 153.140625 69.550781 153.140625 69.492188 153.140625 C 65.546875 153.167969 61.550781 154.160156 57.632812 156.089844 C 50.515625 159.59375 44.871094 165.535156 41.132812 169.46875 C 39.8125 170.859375 38.71875 172.015625 37.847656 172.765625 L 37.847656 173.769531 C 38.832031 173.027344 40.101562 171.683594 41.695312 170.007812 C 45.390625 166.117188 50.980469 160.230469 57.96875 156.789062 C 61.789062 154.910156 65.660156 153.945312 69.492188 153.914062 C 73.980469 153.882812 78.554688 155.136719 83.085938 157.632812 C 89.347656 161.335938 96.257812 163.230469 103.070312 163.105469 C 110.011719 162.976562 116.667969 160.75 122.316406 156.671875 C 124.476562 155.113281 126.269531 153.15625 127.628906 150.863281 C 128.992188 148.570312 129.855469 146.066406 130.195312 143.421875 L 130.644531 139.949219 C 131.394531 134.109375 131.230469 128.210938 130.160156 122.425781 C 129.773438 120.332031 129.46875 118.386719 129.246094 116.472656 C 128.851562 113.179688 128.417969 108.660156 128.5625 105.789062 L 128.5625 105.78125 C 128.5625 105.691406 128.902344 96.734375 131.90625 90.726562 C 132.699219 89.148438 133.921875 87.816406 135.441406 86.890625 C 136.953125 85.964844 138.695312 85.476562 140.476562 85.476562 L 140.480469 85.476562 C 140.492188 85.476562 140.84375 85.46875 141.417969 85.476562 C 141.152344 85.609375 140.898438 85.742188 140.65625 85.882812 C 138.398438 87.1875 137.117188 88.949219 136.855469 91.113281 C 136.621094 93.03125 137.933594 94.769531 139.839844 95.066406 C 142.488281 95.484375 146.464844 95.882812 150.332031 95.417969 C 152.074219 95.207031 153.265625 94.074219 153.78125 92.144531 C 154.132812 90.820312 154.046875 89.558594 154.027344 89.382812 C 154.023438 87.679688 152.867188 86.164062 151.222656 85.699219 C 149.574219 85.238281 147.5 84.984375 145.613281 84.847656 C 146.296875 84.683594 147.015625 84.542969 147.777344 84.421875 C 152.375 83.695312 156.921875 83.964844 157.34375 83.992188 C 158.71875 84.132812 160.847656 84.429688 162.359375 84.664062 C 164.417969 84.984375 165.894531 84.714844 167.019531 83.804688 C 167.980469 83.027344 168.539062 81.90625 169.15625 80.519531 L 169.921875 78.808594 C 171.152344 76.074219 173.046875 74.507812 176.269531 73.5625 C 177.246094 73.277344 178.292969 73.074219 179.375 72.945312 C 181.992188 72.648438 187.15625 72.1875 192.320312 72.507812 C 195.28125 72.691406 197.804688 73.109375 199.832031 73.742188 C 202.214844 74.496094 203.921875 75.554688 204.902344 76.894531 C 208.398438 81.699219 212.542969 84.828125 217.570312 86.457031 C 222.097656 87.921875 226.75 87.945312 230.707031 87.773438 C 235.339844 87.574219 239.8125 89.15625 243.296875 92.214844 C 246.78125 95.277344 248.929688 99.507812 249.34375 104.128906 C 249.960938 111.050781 249.609375 118.027344 248.296875 124.859375 C 248.199219 125.347656 248.109375 125.839844 248.011719 126.328125 C 246.984375 131.585938 245.925781 137.019531 247.011719 142.273438 C 247.109375 142.738281 247.207031 143.1875 247.296875 143.621094 C 247.882812 146.363281 248.351562 148.527344 248.136719 151.039062 C 247.933594 153.476562 247 155.589844 245.359375 157.324219 C 243.871094 158.90625 241.851562 160.132812 239.347656 160.972656 C 231.984375 163.460938 222.175781 161.941406 218.359375 157.726562 C 217.511719 156.789062 216.992188 155.753906 216.816406 154.644531 C 216.628906 153.453125 216.832031 152.171875 217.4375 150.839844 C 217.566406 150.554688 217.699219 150.269531 217.824219 149.988281 C 220.324219 144.492188 222.90625 138.816406 222.90625 132.28125 C 222.90625 126.722656 222.179688 121.6875 220.746094 117.308594 C 219.15625 112.449219 216.695312 108.425781 213.433594 105.359375 C 207.613281 99.875 199.28125 97.425781 188.671875 98.074219 C 182.382812 98.453125 177.316406 99.246094 173.195312 100.488281 C 168.730469 101.832031 165.234375 103.738281 162.511719 106.308594 C 159.699219 108.964844 157.6875 112.339844 156.382812 116.628906 C 155.082031 120.882812 154.464844 126.042969 154.488281 132.402344 C 154.511719 137.941406 155.03125 142.175781 156.132812 145.726562 C 157.519531 150.210938 159.832031 153.628906 163.195312 156.164062 C 164.21875 156.9375 166.460938 158.304688 167.925781 158.984375 C 170.085938 159.980469 172.347656 160.714844 174.691406 161.175781 C 176.464844 162.105469 178.359375 162.84375 180.367188 163.394531 C 184.566406 164.539062 189.128906 164.792969 193.9375 164.164062 C 202.191406 163.074219 205.734375 165.28125 209.488281 167.617188 C 212.773438 169.664062 216.171875 171.78125 222.828125 171.992188 C 226.40625 172.109375 230.554688 171.664062 235.515625 170.636719 C 241.109375 169.480469 247.550781 167.625 255.21875 164.960938 C 259.476562 163.527344 263.914062 162.777344 268.40625 162.722656 C 272.898438 162.667969 277.355469 163.308594 281.644531 164.636719 L 281.992188 164.742188 C 290.121094 167.253906 298.535156 169.851562 307.542969 169.875 L 307.667969 169.875 C 312.480469 169.875 317.085938 169.160156 321.75 167.695312 C 326.832031 166.097656 331.855469 163.660156 337.097656 160.242188 L 337.097656 159.3125 C 331.792969 162.839844 326.699219 165.335938 321.550781 166.953125 Z M 151.039062 86.445312 C 152.359375 86.8125 153.277344 88.027344 153.277344 89.398438 L 153.277344 89.433594 C 153.277344 89.445312 153.386719 90.683594 153.046875 91.957031 C 152.613281 93.566406 151.679688 94.46875 150.265625 94.636719 C 146.484375 95.097656 142.585938 94.703125 139.984375 94.292969 C 138.492188 94.054688 137.46875 92.699219 137.648438 91.199219 C 137.878906 89.292969 139.027344 87.734375 141.0625 86.546875 C 141.734375 86.160156 142.496094 85.808594 143.355469 85.5 C 145.636719 85.585938 148.792969 85.808594 151.039062 86.445312 Z M 170.019531 157.011719 C 166.941406 154.292969 164.542969 150.863281 162.898438 146.816406 C 161.191406 142.609375 160.339844 137.835938 160.375 132.632812 C 160.375 132.632812 160.375 132.621094 160.375 132.597656 C 160.355469 132.066406 160.304688 129.238281 161.132812 125.546875 C 161.632812 123.316406 162.367188 121.199219 163.304688 119.257812 C 164.472656 116.847656 165.960938 114.707031 167.738281 112.878906 C 172.972656 107.5 180.679688 104.820312 190.652344 104.910156 C 194.574219 104.945312 198.246094 105.679688 201.5625 107.101562 C 204.757812 108.460938 207.558594 110.429688 209.898438 112.9375 C 212.210938 115.421875 214 118.367188 215.222656 121.6875 C 216.464844 125.066406 217.085938 128.75 217.070312 132.621094 C 217.042969 137.03125 216.585938 140.707031 215.652344 143.859375 C 214.480469 147.820312 212.585938 150.996094 209.855469 153.5625 C 206.988281 156.261719 203.140625 158.257812 198.433594 159.5 C 193.15625 160.882812 186.621094 161.367188 179 160.9375 C 177.632812 160.859375 176.289062 160.695312 174.96875 160.441406 C 173.191406 159.492188 171.53125 158.34375 170.019531 157.011719 Z M 170.019531 157.011719 " fill-opacity="1" fill-rule="nonzero"/></g><g transform="matrix(1, 0, 0, 1, 143, 254)"><g clip-path="url(#2c46d0149f)"><g fill="#fafaf9" fill-opacity="1"><g transform="translate(1.435439, 10.014792)"><g><path d="M 3.59375 -6.109375 C 4.09375 -6.046875 4.484375 -5.863281 4.765625 -5.5625 C 5.046875 -5.257812 5.1875 -4.847656 5.1875 -4.328125 C 5.1875 -3.984375 5.113281 -3.6875 4.96875 -3.4375 C 4.832031 -3.1875 4.644531 -2.984375 4.40625 -2.828125 C 4.164062 -2.679688 3.894531 -2.585938 3.59375 -2.546875 C 3.457031 -2.523438 3.328125 -2.515625 3.203125 -2.515625 C 3.085938 -2.515625 2.953125 -2.515625 2.796875 -2.515625 L 1.65625 -2.515625 L 1.65625 0 L 0.890625 0 L 0.890625 -6.140625 L 2.796875 -6.140625 C 2.953125 -6.140625 3.085938 -6.140625 3.203125 -6.140625 C 3.328125 -6.140625 3.457031 -6.128906 3.59375 -6.109375 Z M 3.546875 -3.203125 C 3.773438 -3.242188 3.96875 -3.351562 4.125 -3.53125 C 4.289062 -3.707031 4.375 -3.972656 4.375 -4.328125 C 4.375 -4.679688 4.289062 -4.945312 4.125 -5.125 C 3.96875 -5.300781 3.773438 -5.410156 3.546875 -5.453125 C 3.460938 -5.472656 3.363281 -5.484375 3.25 -5.484375 C 3.132812 -5.492188 3.007812 -5.5 2.875 -5.5 L 1.65625 -5.5 L 1.65625 -3.15625 L 2.875 -3.15625 C 3.007812 -3.15625 3.132812 -3.15625 3.25 -3.15625 C 3.363281 -3.164062 3.460938 -3.179688 3.546875 -3.203125 Z M 3.546875 -3.203125 "/></g></g></g><g fill="#fafaf9" fill-opacity="1"><g transform="translate(6.762179, 10.014792)"><g/></g></g><g fill="#fafaf9" fill-opacity="1"><g transform="translate(8.686224, 10.014792)"><g><path d="M 5.8125 -6.140625 L 5.8125 0 L 5.046875 0 L 5.046875 -2.6875 L 1.65625 -2.6875 L 1.65625 0 L 0.890625 0 L 0.890625 -6.140625 L 1.65625 -6.140625 L 1.65625 -3.328125 L 5.046875 -3.328125 L 5.046875 -6.140625 Z M 5.8125 -6.140625 "/></g></g></g><g fill="#fafaf9" fill-opacity="1"><g transform="translate(15.188758, 10.014792)"><g/></g></g><g fill="#fafaf9" fill-opacity="1"><g transform="translate(17.112802, 10.014792)"><g><path d="M 3.328125 -6.265625 C 3.941406 -6.265625 4.46875 -6.128906 4.90625 -5.859375 C 5.34375 -5.585938 5.671875 -5.210938 5.890625 -4.734375 C 6.109375 -4.253906 6.21875 -3.703125 6.21875 -3.078125 C 6.21875 -2.453125 6.109375 -1.894531 5.890625 -1.40625 C 5.671875 -0.925781 5.34375 -0.550781 4.90625 -0.28125 C 4.46875 -0.0078125 3.941406 0.125 3.328125 0.125 C 2.703125 0.125 2.171875 -0.0078125 1.734375 -0.28125 C 1.304688 -0.550781 0.976562 -0.925781 0.75 -1.40625 C 0.53125 -1.894531 0.421875 -2.453125 0.421875 -3.078125 C 0.421875 -3.703125 0.53125 -4.253906 0.75 -4.734375 C 0.976562 -5.210938 1.304688 -5.585938 1.734375 -5.859375 C 2.171875 -6.128906 2.703125 -6.265625 3.328125 -6.265625 Z M 3.328125 -0.484375 C 3.972656 -0.484375 4.472656 -0.710938 4.828125 -1.171875 C 5.191406 -1.640625 5.375 -2.273438 5.375 -3.078125 C 5.375 -3.878906 5.191406 -4.507812 4.828125 -4.96875 C 4.472656 -5.4375 3.972656 -5.671875 3.328125 -5.671875 C 2.671875 -5.671875 2.164062 -5.4375 1.8125 -4.96875 C 1.457031 -4.507812 1.28125 -3.878906 1.28125 -3.078125 C 1.28125 -2.273438 1.457031 -1.640625 1.8125 -1.171875 C 2.164062 -0.710938 2.671875 -0.484375 3.328125 -0.484375 Z M 3.328125 -0.484375 "/></g></g></g><g fill="#fafaf9" fill-opacity="1"><g transform="translate(23.677688, 10.014792)"><g/></g></g><g fill="#fafaf9" fill-opacity="1"><g transform="translate(25.601732, 10.014792)"><g><path d="M 5.453125 -5.515625 L 3.265625 -5.515625 L 3.265625 0 L 2.5 0 L 2.5 -5.515625 L 0.296875 -5.515625 L 0.296875 -6.140625 L 5.453125 -6.140625 Z M 5.453125 -5.515625 "/></g></g></g><g fill="#fafaf9" fill-opacity="1"><g transform="translate(31.053178, 10.014792)"><g/></g></g><g fill="#fafaf9" fill-opacity="1"><g transform="translate(32.977222, 10.014792)"><g><path d="M 3.328125 -6.265625 C 3.941406 -6.265625 4.46875 -6.128906 4.90625 -5.859375 C 5.34375 -5.585938 5.671875 -5.210938 5.890625 -4.734375 C 6.109375 -4.253906 6.21875 -3.703125 6.21875 -3.078125 C 6.21875 -2.453125 6.109375 -1.894531 5.890625 -1.40625 C 5.671875 -0.925781 5.34375 -0.550781 4.90625 -0.28125 C 4.46875 -0.0078125 3.941406 0.125 3.328125 0.125 C 2.703125 0.125 2.171875 -0.0078125 1.734375 -0.28125 C 1.304688 -0.550781 0.976562 -0.925781 0.75 -1.40625 C 0.53125 -1.894531 0.421875 -2.453125 0.421875 -3.078125 C 0.421875 -3.703125 0.53125 -4.253906 0.75 -4.734375 C 0.976562 -5.210938 1.304688 -5.585938 1.734375 -5.859375 C 2.171875 -6.128906 2.703125 -6.265625 3.328125 -6.265625 Z M 3.328125 -0.484375 C 3.972656 -0.484375 4.472656 -0.710938 4.828125 -1.171875 C 5.191406 -1.640625 5.375 -2.273438 5.375 -3.078125 C 5.375 -3.878906 5.191406 -4.507812 4.828125 -4.96875 C 4.472656 -5.4375 3.972656 -5.671875 3.328125 -5.671875 C 2.671875 -5.671875 2.164062 -5.4375 1.8125 -4.96875 C 1.457031 -4.507812 1.28125 -3.878906 1.28125 -3.078125 C 1.28125 -2.273438 1.457031 -1.640625 1.8125 -1.171875 C 2.164062 -0.710938 2.671875 -0.484375 3.328125 -0.484375 Z M 3.328125 -0.484375 "/></g></g></g><g fill="#fafaf9" fill-opacity="1"><g transform="translate(39.542109, 10.014792)"><g/></g></g><g fill="#fafaf9" fill-opacity="1"><g transform="translate(41.466153, 10.014792)"><g><path d="M 3.546875 -2.96875 L 5.75 -2.96875 L 5.75 0 L 5.078125 0 L 5.078125 -1.0625 L 4.796875 -0.5 C 4.628906 -0.300781 4.410156 -0.144531 4.140625 -0.03125 C 3.867188 0.0703125 3.554688 0.125 3.203125 0.125 C 2.609375 0.125 2.101562 -0.015625 1.6875 -0.296875 C 1.269531 -0.578125 0.953125 -0.953125 0.734375 -1.421875 C 0.523438 -1.898438 0.421875 -2.441406 0.421875 -3.046875 C 0.421875 -3.671875 0.539062 -4.222656 0.78125 -4.703125 C 1.019531 -5.191406 1.359375 -5.570312 1.796875 -5.84375 C 2.234375 -6.125 2.742188 -6.265625 3.328125 -6.265625 C 3.847656 -6.265625 4.285156 -6.175781 4.640625 -6 C 4.992188 -5.820312 5.269531 -5.578125 5.46875 -5.265625 C 5.664062 -4.953125 5.785156 -4.59375 5.828125 -4.1875 L 5.828125 -4.09375 L 5.0625 -4.09375 L 5.046875 -4.1875 C 4.960938 -4.625 4.773438 -4.976562 4.484375 -5.25 C 4.203125 -5.53125 3.804688 -5.671875 3.296875 -5.671875 C 2.890625 -5.671875 2.53125 -5.554688 2.21875 -5.328125 C 1.914062 -5.109375 1.679688 -4.800781 1.515625 -4.40625 C 1.359375 -4.019531 1.28125 -3.578125 1.28125 -3.078125 C 1.28125 -2.578125 1.359375 -2.128906 1.515625 -1.734375 C 1.671875 -1.347656 1.894531 -1.039062 2.1875 -0.8125 C 2.488281 -0.59375 2.84375 -0.484375 3.25 -0.484375 C 3.582031 -0.484375 3.878906 -0.5625 4.140625 -0.71875 C 4.398438 -0.875 4.601562 -1.09375 4.75 -1.375 C 4.90625 -1.65625 4.984375 -1.976562 4.984375 -2.34375 L 3.546875 -2.34375 Z M 3.546875 -2.96875 "/></g></g></g><g fill="#fafaf9" fill-opacity="1"><g transform="translate(47.790544, 10.014792)"><g/></g></g><g fill="#fafaf9" fill-opacity="1"><g transform="translate(49.714588, 10.014792)"><g><path d="M 4.9375 -1.609375 C 4.96875 -1.210938 5.007812 -0.882812 5.0625 -0.625 C 5.125 -0.375 5.21875 -0.164062 5.34375 0 L 4.5 0 C 4.414062 -0.195312 4.347656 -0.40625 4.296875 -0.625 C 4.253906 -0.851562 4.210938 -1.160156 4.171875 -1.546875 C 4.128906 -1.859375 4.039062 -2.109375 3.90625 -2.296875 C 3.769531 -2.492188 3.550781 -2.609375 3.25 -2.640625 C 3.175781 -2.640625 3.101562 -2.640625 3.03125 -2.640625 C 2.957031 -2.640625 2.882812 -2.640625 2.8125 -2.640625 L 1.65625 -2.640625 L 1.65625 0 L 0.890625 0 L 0.890625 -6.140625 L 2.90625 -6.140625 C 3.0625 -6.140625 3.195312 -6.140625 3.3125 -6.140625 C 3.4375 -6.140625 3.566406 -6.128906 3.703125 -6.109375 C 4.148438 -6.046875 4.515625 -5.882812 4.796875 -5.625 C 5.085938 -5.375 5.234375 -4.988281 5.234375 -4.46875 C 5.234375 -4.195312 5.179688 -3.960938 5.078125 -3.765625 C 4.972656 -3.578125 4.835938 -3.421875 4.671875 -3.296875 C 4.503906 -3.171875 4.328125 -3.078125 4.140625 -3.015625 C 4.390625 -2.898438 4.578125 -2.710938 4.703125 -2.453125 C 4.835938 -2.203125 4.914062 -1.921875 4.9375 -1.609375 Z M 1.65625 -3.265625 L 2.828125 -3.265625 C 2.960938 -3.265625 3.070312 -3.265625 3.15625 -3.265625 C 3.25 -3.273438 3.335938 -3.28125 3.421875 -3.28125 C 3.710938 -3.3125 3.953125 -3.421875 4.140625 -3.609375 C 4.328125 -3.796875 4.421875 -4.0625 4.421875 -4.40625 C 4.421875 -4.75 4.34375 -5.003906 4.1875 -5.171875 C 4.03125 -5.335938 3.804688 -5.441406 3.515625 -5.484375 C 3.367188 -5.503906 3.164062 -5.515625 2.90625 -5.515625 L 1.65625 -5.515625 Z M 1.65625 -3.265625 "/></g></g></g><g fill="#fafaf9" fill-opacity="1"><g transform="translate(55.228386, 10.014792)"><g/></g></g><g fill="#fafaf9" fill-opacity="1"><g transform="translate(57.15243, 10.014792)"><g><path d="M 4.0625 -2.171875 L 1.796875 -2.171875 L 1.078125 0 L 0.265625 0 L 2.46875 -6.140625 L 3.5 -6.140625 L 5.625 0 L 4.796875 0 Z M 2.015625 -2.796875 L 3.859375 -2.796875 L 2.96875 -5.546875 Z M 2.015625 -2.796875 "/></g></g></g><g fill="#fafaf9" fill-opacity="1"><g transform="translate(62.844383, 10.014792)"><g/></g></g><g fill="#fafaf9" fill-opacity="1"><g transform="translate(64.768427, 10.014792)"><g><path d="M 3.59375 -6.109375 C 4.09375 -6.046875 4.484375 -5.863281 4.765625 -5.5625 C 5.046875 -5.257812 5.1875 -4.847656 5.1875 -4.328125 C 5.1875 -3.984375 5.113281 -3.6875 4.96875 -3.4375 C 4.832031 -3.1875 4.644531 -2.984375 4.40625 -2.828125 C 4.164062 -2.679688 3.894531 -2.585938 3.59375 -2.546875 C 3.457031 -2.523438 3.328125 -2.515625 3.203125 -2.515625 C 3.085938 -2.515625 2.953125 -2.515625 2.796875 -2.515625 L 1.65625 -2.515625 L 1.65625 0 L 0.890625 0 L 0.890625 -6.140625 L 2.796875 -6.140625 C 2.953125 -6.140625 3.085938 -6.140625 3.203125 -6.140625 C 3.328125 -6.140625 3.457031 -6.128906 3.59375 -6.109375 Z M 3.546875 -3.203125 C 3.773438 -3.242188 3.96875 -3.351562 4.125 -3.53125 C 4.289062 -3.707031 4.375 -3.972656 4.375 -4.328125 C 4.375 -4.679688 4.289062 -4.945312 4.125 -5.125 C 3.96875 -5.300781 3.773438 -5.410156 3.546875 -5.453125 C 3.460938 -5.472656 3.363281 -5.484375 3.25 -5.484375 C 3.132812 -5.492188 3.007812 -5.5 2.875 -5.5 L 1.65625 -5.5 L 1.65625 -3.15625 L 2.875 -3.15625 C 3.007812 -3.15625 3.132812 -3.15625 3.25 -3.15625 C 3.363281 -3.164062 3.460938 -3.179688 3.546875 -3.203125 Z M 3.546875 -3.203125 "/></g></g></g><g fill="#fafaf9" fill-opacity="1"><g transform="translate(70.097603, 10.014792)"><g/></g></g><g fill="#fafaf9" fill-opacity="1"><g transform="translate(72.021647, 10.014792)"><g/></g></g><g fill="#fafaf9" fill-opacity="1"><g transform="translate(73.948252, 10.014792)"><g><path d="M 5.8125 -6.140625 L 5.8125 0 L 5.046875 0 L 5.046875 -2.6875 L 1.65625 -2.6875 L 1.65625 0 L 0.890625 0 L 0.890625 -6.140625 L 1.65625 -6.140625 L 1.65625 -3.328125 L 5.046875 -3.328125 L 5.046875 -6.140625 Z M 5.8125 -6.140625 "/></g></g></g><g fill="#fafaf9" fill-opacity="1"><g transform="translate(80.450785, 10.014792)"><g/></g></g><g fill="#fafaf9" fill-opacity="1"><g transform="translate(82.37483, 10.014792)"><g><path d="M 3.109375 -2.421875 L 3.109375 0 L 2.34375 0 L 2.34375 -2.421875 L 0.171875 -6.140625 L 1.046875 -6.140625 L 2.765625 -3.15625 L 4.421875 -6.140625 L 5.28125 -6.140625 Z M 3.109375 -2.421875 "/></g></g></g></g></g></svg>